<svg width="92" height="83" viewBox="0 0 92 83" fill="none" xmlns="http://www.w3.org/2000/svg">
    <g filter="url(#filter0_d_112_1283)">
        <path d="M38.2794 27.3996V19.5996L38.9634 20.3076H36.5034V18.9996H39.8394V27.3996H38.2794Z" fill="#E10000"/>
        <path d="M44.8777 27.5196C44.1817 27.5196 43.5777 27.4156 43.0657 27.2076C42.5537 26.9996 42.1577 26.7076 41.8777 26.3316C41.5977 25.9476 41.4577 25.4996 41.4577 24.9876C41.4577 24.4756 41.5937 24.0436 41.8657 23.6916C42.1377 23.3396 42.5297 23.0716 43.0417 22.8876C43.5537 22.7036 44.1657 22.6116 44.8777 22.6116C45.5897 22.6116 46.2017 22.7036 46.7137 22.8876C47.2337 23.0716 47.6297 23.3436 47.9017 23.7036C48.1817 24.0556 48.3217 24.4836 48.3217 24.9876C48.3217 25.4996 48.1777 25.9476 47.8897 26.3316C47.6097 26.7076 47.2097 26.9996 46.6897 27.2076C46.1777 27.4156 45.5737 27.5196 44.8777 27.5196ZM44.8777 26.2956C45.4537 26.2956 45.9097 26.1756 46.2457 25.9356C46.5817 25.6956 46.7497 25.3636 46.7497 24.9396C46.7497 24.5236 46.5817 24.1956 46.2457 23.9556C45.9097 23.7156 45.4537 23.5956 44.8777 23.5956C44.3017 23.5956 43.8497 23.7156 43.5217 23.9556C43.1937 24.1956 43.0297 24.5236 43.0297 24.9396C43.0297 25.3636 43.1937 25.6956 43.5217 25.9356C43.8497 26.1756 44.3017 26.2956 44.8777 26.2956ZM44.8777 23.4276C44.2297 23.4276 43.6737 23.3436 43.2097 23.1756C42.7457 22.9996 42.3857 22.7476 42.1297 22.4196C41.8817 22.0836 41.7577 21.6836 41.7577 21.2196C41.7577 20.7396 41.8857 20.3276 42.1417 19.9836C42.4057 19.6316 42.7737 19.3596 43.2457 19.1676C43.7177 18.9756 44.2617 18.8796 44.8777 18.8796C45.5017 18.8796 46.0497 18.9756 46.5217 19.1676C46.9937 19.3596 47.3617 19.6316 47.6257 19.9836C47.8897 20.3276 48.0217 20.7396 48.0217 21.2196C48.0217 21.6836 47.8937 22.0836 47.6377 22.4196C47.3897 22.7476 47.0297 22.9996 46.5577 23.1756C46.0857 23.3436 45.5257 23.4276 44.8777 23.4276ZM44.8777 22.4676C45.3737 22.4676 45.7657 22.3636 46.0537 22.1556C46.3417 21.9396 46.4857 21.6516 46.4857 21.2916C46.4857 20.9156 46.3377 20.6236 46.0417 20.4156C45.7457 20.2076 45.3577 20.1036 44.8777 20.1036C44.3977 20.1036 44.0137 20.2076 43.7257 20.4156C43.4377 20.6236 43.2937 20.9156 43.2937 21.2916C43.2937 21.6516 43.4337 21.9396 43.7137 22.1556C44.0017 22.3636 44.3897 22.4676 44.8777 22.4676Z" fill="#E10000"/>
        <path d="M51.7099 25.8996V20.4996H52.9939V25.8996H51.7099ZM49.5859 23.7996V22.5996H55.1179V23.7996H49.5859Z" fill="#E10000"/>
    </g>
    <circle cx="45.8555" cy="23" r="15.5" stroke="#E10000"/>
    <defs>
        <filter id="filter0_d_112_1283" x="0.139782" y="10.697821" width="91.3418" height="81.3673" filterUnits="userSpaceOnUse" color-interpolation-filters="sRGB">
            <feFlood flood-opacity="0" result="BackgroundImageFix"/>
            <feColorMatrix in="SourceAlpha" type="matrix" values="0 0 0 0 0 0 0 0 0 0 0 0 0 0 0 0 0 0 127 0" result="hardAlpha"/>
            <feGaussianBlur stdDeviation="18.1818"/>
            <feComposite in2="hardAlpha" operator="out"/>
            <feColorMatrix type="matrix" values="0 0 0 0 0 0 0 0 0 0 0 0 0 0 0 0 0 0 0.25 0"/>
            <feBlend mode="normal" in2="BackgroundImageFix" result="effect1_dropShadow_112_1283"/>
            <feBlend mode="normal" in="SourceGraphic" in2="effect1_dropShadow_112_1283" result="shape"/>
        </filter>
    </defs>
</svg>
