<svg width="113" height="33" viewBox="0 0 113 33" fill="none" xmlns="http://www.w3.org/2000/svg">
    <g clip-path="url(#clip0_112_1290)">
        <mask id="mask0_112_1290" style="mask-type:luminance" maskUnits="userSpaceOnUse" x="0" y="0" width="113" height="33">
            <path d="M112.372 0H0.905273V33H112.372V0Z" fill="white"/>
        </mask>
        <g mask="url(#mask0_112_1290)">
            <mask id="mask1_112_1290" style="mask-type:luminance" maskUnits="userSpaceOnUse" x="0" y="0" width="113" height="33">
                <path d="M112.372 0H0.905273V33H112.372V0Z" fill="white"/>
            </mask>
            <g mask="url(#mask1_112_1290)">
                <path d="M108.243 33H5.03437C2.76363 33 0.905273 31.1432 0.905273 28.8743V4.12565C0.905273 1.8568 2.76363 0 5.03437 0H108.245C110.515 0 112.374 1.8568 112.374 4.12565V28.8761C112.374 31.1449 110.515 33.0017 108.245 33.0017" fill="white"/>
                <path d="M108.243 0.66031C110.155 0.66031 111.711 2.2154 111.711 4.12565V28.8761C111.711 30.7863 110.155 32.3414 108.243 32.3414H5.03437C3.12253 32.3414 1.56614 30.7863 1.56614 28.8761V4.12565C1.56614 2.21368 3.1208 0.66031 5.03437 0.66031H108.245H108.243ZM108.243 0H5.03437C2.76363 0 0.905273 1.8568 0.905273 4.12565V28.8761C0.905273 31.1449 2.76363 33.0017 5.03437 33.0017H108.245C110.515 33.0017 112.374 31.1449 112.374 28.8761V4.12565C112.372 1.8568 110.514 0 108.243 0Z" fill="black"/>
                <path d="M35.3718 25.5615L39.9081 15.0181H41.7514L46.302 25.5615H44.3435L40.4409 16.0573H41.1898L37.3015 25.5615H35.3718ZM37.4599 23.1214L37.964 21.5851H43.4075L43.9115 23.1214H37.4599Z" fill="black"/>
                <path d="M51.7747 17.428C52.3891 17.428 52.9364 17.5535 53.4164 17.8045C53.906 18.0556 54.29 18.4422 54.5685 18.9643C54.8469 19.4764 54.9861 20.1392 54.9861 20.9525V25.5615H53.186V21.1935C53.186 20.4806 53.0228 19.9484 52.6963 19.5969C52.3795 19.2455 51.9331 19.0698 51.3571 19.0698C50.9346 19.0698 50.5602 19.1601 50.2338 19.3409C49.9074 19.5216 49.653 19.7927 49.4706 20.1542C49.2978 20.5057 49.2113 20.9525 49.2113 21.4947V25.5615H47.4112V17.5184H49.1249V19.6873L48.8225 19.0246C49.0913 18.5125 49.4802 18.1208 49.989 17.8497C50.5074 17.5686 51.1027 17.428 51.7747 17.428Z" fill="black"/>
                <path d="M60.5383 25.6669C59.799 25.6669 59.1318 25.4962 58.5366 25.1548C57.9509 24.8034 57.4901 24.3214 57.1541 23.7089C56.8181 23.0963 56.65 22.3734 56.65 21.5399C56.65 20.7065 56.8181 19.9835 57.1541 19.371C57.4901 18.7585 57.9509 18.2815 58.5366 17.9401C59.1318 17.5987 59.799 17.428 60.5383 17.428C61.1815 17.428 61.7575 17.5786 62.2664 17.8798C62.7752 18.171 63.1784 18.6179 63.476 19.2204C63.7736 19.8229 63.9225 20.596 63.9225 21.5399C63.9225 22.4738 63.7784 23.247 63.4904 23.8595C63.2024 24.462 62.804 24.9138 62.2952 25.2151C61.7863 25.5163 61.2007 25.6669 60.5383 25.6669ZM60.7543 24.0553C61.1863 24.0553 61.5703 23.9549 61.9063 23.754C62.252 23.5532 62.5256 23.262 62.7272 22.8804C62.9384 22.4989 63.044 22.052 63.044 21.5399C63.044 21.0178 62.9384 20.5709 62.7272 20.1994C62.5256 19.8178 62.252 19.5266 61.9063 19.3258C61.5703 19.125 61.1863 19.0246 60.7543 19.0246C60.3223 19.0246 59.9334 19.125 59.5878 19.3258C59.2518 19.5266 58.9782 19.8178 58.767 20.1994C58.5653 20.5709 58.4645 21.0178 58.4645 21.5399C58.4645 22.052 58.5653 22.4989 58.767 22.8804C58.9782 23.262 59.2518 23.5532 59.5878 23.754C59.9334 23.9549 60.3223 24.0553 60.7543 24.0553ZM63.0872 25.5615V23.6637L63.1592 21.5249L63.0152 19.3861V14.3855H64.8009V25.5615H63.0872Z" fill="black"/>
                <path d="M67.1702 25.5615V17.5184H68.8839V19.7325L68.6823 19.0848C68.9127 18.5426 69.2727 18.1309 69.7623 17.8497C70.2616 17.5686 70.8808 17.428 71.62 17.428V19.2204C71.5432 19.2003 71.4712 19.1902 71.404 19.1902C71.3368 19.1802 71.2696 19.1752 71.2024 19.1752C70.5208 19.1752 69.9783 19.3861 69.5751 19.8078C69.1719 20.2195 68.9703 20.837 68.9703 21.6604V25.5615H67.1702Z" fill="black"/>
                <path d="M76.533 25.6669C75.7457 25.6669 75.0449 25.4912 74.4304 25.1398C73.816 24.7783 73.3312 24.2862 72.976 23.6637C72.6207 23.0411 72.4431 22.3332 72.4431 21.5399C72.4431 20.7366 72.6207 20.0287 72.976 19.4162C73.3312 18.7936 73.816 18.3066 74.4304 17.9552C75.0449 17.6037 75.7457 17.428 76.533 17.428C77.3298 17.428 78.0354 17.6037 78.6499 17.9552C79.2739 18.3066 79.7587 18.7886 80.1044 19.4011C80.4596 20.0136 80.6372 20.7266 80.6372 21.5399C80.6372 22.3332 80.4596 23.0411 80.1044 23.6637C79.7587 24.2862 79.2739 24.7783 78.6499 25.1398C78.0354 25.4912 77.3298 25.6669 76.533 25.6669ZM76.533 24.0553C76.9746 24.0553 77.3682 23.9549 77.7138 23.754C78.0594 23.5532 78.3283 23.262 78.5203 22.8804C78.7219 22.4989 78.8227 22.052 78.8227 21.5399C78.8227 21.0178 78.7219 20.5709 78.5203 20.1994C78.3283 19.8178 78.0594 19.5266 77.7138 19.3258C77.3682 19.125 76.9794 19.0246 76.5474 19.0246C76.1057 19.0246 75.7121 19.125 75.3665 19.3258C75.0305 19.5266 74.7617 19.8178 74.56 20.1994C74.3584 20.5709 74.2576 21.0178 74.2576 21.5399C74.2576 22.052 74.3584 22.4989 74.56 22.8804C74.7617 23.262 75.0305 23.5532 75.3665 23.754C75.7121 23.9549 76.1009 24.0553 76.533 24.0553Z" fill="black"/>
                <path d="M82.3585 25.5615V17.5184H84.1586V25.5615H82.3585ZM83.2658 16.1929C82.9298 16.1929 82.6513 16.0824 82.4305 15.8615C82.2193 15.6406 82.1137 15.3745 82.1137 15.0632C82.1137 14.7419 82.2193 14.4758 82.4305 14.265C82.6513 14.044 82.9298 13.9336 83.2658 13.9336C83.6018 13.9336 83.8754 14.039 84.0866 14.2499C84.3074 14.4507 84.4179 14.7068 84.4179 15.0181C84.4179 15.3494 84.3122 15.6306 84.101 15.8615C83.8898 16.0824 83.6114 16.1929 83.2658 16.1929Z" fill="black"/>
                <path d="M89.7759 25.6669C89.0366 25.6669 88.3694 25.4962 87.7741 25.1548C87.1885 24.8034 86.7277 24.3214 86.3917 23.7089C86.0556 23.0963 85.8876 22.3734 85.8876 21.5399C85.8876 20.7065 86.0556 19.9835 86.3917 19.371C86.7277 18.7585 87.1885 18.2815 87.7741 17.9401C88.3694 17.5987 89.0366 17.428 89.7759 17.428C90.4191 17.428 90.9951 17.5786 91.504 17.8798C92.0128 18.171 92.416 18.6179 92.7136 19.2204C93.0112 19.8229 93.16 20.596 93.16 21.5399C93.16 22.4738 93.016 23.247 92.728 23.8595C92.44 24.462 92.0416 24.9138 91.5327 25.2151C91.0239 25.5163 90.4383 25.6669 89.7759 25.6669ZM89.9919 24.0553C90.4239 24.0553 90.8079 23.9549 91.1439 23.754C91.4896 23.5532 91.7632 23.262 91.9648 22.8804C92.176 22.4989 92.2816 22.052 92.2816 21.5399C92.2816 21.0178 92.176 20.5709 91.9648 20.1994C91.7632 19.8178 91.4896 19.5266 91.1439 19.3258C90.8079 19.125 90.4239 19.0246 89.9919 19.0246C89.5598 19.0246 89.171 19.125 88.8254 19.3258C88.4894 19.5266 88.2158 19.8178 88.0046 20.1994C87.8029 20.5709 87.7021 21.0178 87.7021 21.5399C87.7021 22.052 87.8029 22.4989 88.0046 22.8804C88.2158 23.262 88.4894 23.5532 88.8254 23.754C89.171 23.9549 89.5598 24.0553 89.9919 24.0553ZM92.3248 25.5615V23.6637L92.3968 21.5249L92.2528 19.3861V14.3855H94.0385V25.5615H92.3248Z" fill="black"/>
                <g clip-path="url(#clip1_112_1290)">
                    <path d="M12.1169 5.91897C11.9156 6.02875 11.8432 6.27858 11.9547 6.47668L14.2233 10.5049C14.3348 10.703 14.5887 10.7743 14.79 10.6645C14.9913 10.5548 15.0637 10.3049 14.9521 10.1068L12.6829 6.07859C12.5714 5.88049 12.3175 5.8092 12.1163 5.91897H12.1169Z" fill="#A4C639"/>
                    <path d="M23.5668 12.6235C22.7174 12.6235 22.0283 13.3017 22.0283 14.1377V19.5002C22.0283 20.3362 22.7174 21.0144 23.5668 21.0144C24.4161 21.0144 25.1052 20.3362 25.1052 19.5002V14.1377C25.1052 13.3017 24.4161 12.6235 23.5668 12.6235Z" fill="#A4C639"/>
                    <path d="M18.1181 18.7424C17.2687 18.7424 16.5796 19.4206 16.5796 20.2566V25.6191C16.5796 26.4551 17.2687 27.1333 18.1181 27.1333C18.9674 27.1333 19.6565 26.4551 19.6565 25.6191V20.2566C19.6565 19.4206 18.9674 18.7424 18.1181 18.7424Z" fill="#A4C639"/>
                    <path d="M19.7604 5.91897C19.9617 6.02875 20.0341 6.27858 19.9226 6.47668L17.654 10.5049C17.5425 10.703 17.2886 10.7743 17.0874 10.6645C16.8861 10.5548 16.8136 10.3049 16.9252 10.1068L19.1944 6.07859C19.3059 5.88049 19.5598 5.8092 19.7611 5.91897H19.7604Z" fill="#A4C639"/>
                    <path d="M8.31043 12.6235C9.15979 12.6235 9.8489 13.3017 9.8489 14.1377V19.5002C9.8489 20.3362 9.15979 21.0144 8.31043 21.0144C7.46108 21.0144 6.77197 20.3362 6.77197 19.5002V14.1377C6.77197 13.3017 7.46108 12.6235 8.31043 12.6235Z" fill="#A4C639"/>
                    <path d="M13.7592 18.7424C14.6085 18.7424 15.2976 19.4206 15.2976 20.2566V25.6191C15.2976 26.4551 14.6085 27.1333 13.7592 27.1333C12.9098 27.1333 12.2207 26.4551 12.2207 25.6191V20.2566C12.2207 19.4206 12.9098 18.7424 13.7592 18.7424Z" fill="#A4C639"/>
                    <path d="M15.9386 7.32422C12.7168 7.32422 10.1052 9.697 10.1052 12.6237H21.7719C21.7719 9.697 19.1604 7.32422 15.9386 7.32422Z" fill="#A4C639"/>
                    <path d="M10.1052 13.0784V21.3935C10.1052 22.16 10.7366 22.7815 11.5155 22.7815H20.3616C21.1405 22.7815 21.7719 22.16 21.7719 21.3935V13.0784H10.1052Z" fill="#A4C639"/>
                    <path d="M13.2464 10.2899C13.388 10.2899 13.5028 10.1769 13.5028 10.0375C13.5028 9.89814 13.388 9.78516 13.2464 9.78516C13.1048 9.78516 12.99 9.89814 12.99 10.0375C12.99 10.1769 13.1048 10.2899 13.2464 10.2899Z" fill="white"/>
                    <path d="M13.2462 10.5156C12.9776 10.5156 12.759 10.3005 12.759 10.0361C12.759 9.77177 12.9776 9.55664 13.2462 9.55664C13.5148 9.55664 13.7334 9.77177 13.7334 10.0361C13.7334 10.3005 13.5148 10.5156 13.2462 10.5156ZM13.2462 10.0109C13.2321 10.0109 13.2206 10.0222 13.2206 10.0361C13.2206 10.05 13.2321 10.0614 13.2462 10.0614C13.2603 10.0614 13.2719 10.05 13.2719 10.0361C13.2719 10.0222 13.2603 10.0109 13.2462 10.0109Z" fill="white"/>
                    <path d="M18.6309 10.2899C18.7725 10.2899 18.8873 10.1769 18.8873 10.0375C18.8873 9.89814 18.7725 9.78516 18.6309 9.78516C18.4893 9.78516 18.3745 9.89814 18.3745 10.0375C18.3745 10.1769 18.4893 10.2899 18.6309 10.2899Z" fill="white"/>
                    <path d="M18.631 10.5156C18.3624 10.5156 18.1438 10.3005 18.1438 10.0361C18.1438 9.77177 18.3624 9.55664 18.631 9.55664C18.8996 9.55664 19.1182 9.77177 19.1182 10.0361C19.1182 10.3005 18.8996 10.5156 18.631 10.5156ZM18.631 10.0109C18.6169 10.0109 18.6053 10.0222 18.6053 10.0361C18.6053 10.05 18.6169 10.0614 18.631 10.0614C18.6451 10.0614 18.6566 10.05 18.6566 10.0361C18.6566 10.0222 18.6451 10.0109 18.631 10.0109Z" fill="white"/>
                </g>
            </g>
            <path d="M35.168 12.3238V7.99158H37.0618C37.5321 7.99158 37.9447 8.08235 38.2996 8.26389C38.6544 8.44543 38.9308 8.69711 39.1289 9.01894C39.3269 9.34076 39.4259 9.72035 39.4259 10.1577C39.4259 10.5909 39.3269 10.9705 39.1289 11.2965C38.9308 11.6183 38.6544 11.87 38.2996 12.0515C37.9447 12.233 37.5321 12.3238 37.0618 12.3238H35.168ZM35.9725 11.643H37.0246C37.3506 11.643 37.6312 11.5811 37.8663 11.4574C38.1056 11.3336 38.2892 11.1603 38.4171 10.9375C38.5492 10.7147 38.6152 10.4548 38.6152 10.1577C38.6152 9.8565 38.5492 9.59657 38.4171 9.37789C38.2892 9.15509 38.1056 8.9818 37.8663 8.85802C37.6312 8.73425 37.3506 8.67236 37.0246 8.67236H35.9725V11.643Z" fill="black"/>
            <path d="M41.0237 9.79255H43.1775V10.4548H41.0237V9.79255ZM41.0856 11.6492H43.5303V12.3238H40.2811V7.99158H43.4436V8.66617H41.0856V11.6492Z" fill="black"/>
            <path d="M45.7702 12.3857C45.4318 12.3857 45.1079 12.3383 44.7985 12.2434C44.4891 12.1443 44.2436 12.0185 44.062 11.8658L44.3405 11.2408C44.5138 11.3769 44.7284 11.4904 44.9842 11.5811C45.24 11.6719 45.502 11.7173 45.7702 11.7173C45.9971 11.7173 46.1807 11.6925 46.321 11.643C46.4613 11.5935 46.5644 11.5275 46.6304 11.445C46.6964 11.3583 46.7294 11.2614 46.7294 11.1541C46.7294 11.0221 46.682 10.9169 46.5871 10.8385C46.4922 10.756 46.3684 10.692 46.2158 10.6466C46.0672 10.5971 45.9001 10.5517 45.7145 10.5105C45.5329 10.4692 45.3493 10.4218 45.1636 10.3681C44.9821 10.3104 44.815 10.2382 44.6623 10.1515C44.5138 10.0607 44.3921 9.94108 44.2972 9.79255C44.2023 9.64402 44.1549 9.45422 44.1549 9.22317C44.1549 8.98799 44.2167 8.77344 44.3405 8.57952C44.4684 8.38148 44.6603 8.22469 44.9161 8.10917C45.176 7.98951 45.504 7.92969 45.9001 7.92969C46.1601 7.92969 46.4179 7.9627 46.6737 8.02871C46.9295 8.09473 47.1523 8.18962 47.3421 8.3134L47.0884 8.93848C46.8945 8.82295 46.6944 8.73837 46.4881 8.68474C46.2818 8.62697 46.0837 8.59809 45.8939 8.59809C45.6711 8.59809 45.4896 8.62491 45.3493 8.67855C45.2132 8.73218 45.1121 8.80232 45.0461 8.88897C44.9842 8.97561 44.9532 9.07464 44.9532 9.18604C44.9532 9.31807 44.9986 9.42534 45.0894 9.50786C45.1843 9.58625 45.306 9.64814 45.4545 9.69353C45.6072 9.73891 45.7763 9.7843 45.962 9.82968C46.1477 9.87094 46.3313 9.91839 46.5128 9.97203C46.6985 10.0257 46.8656 10.0958 47.0141 10.1825C47.1668 10.2691 47.2885 10.3867 47.3793 10.5352C47.4742 10.6838 47.5216 10.8715 47.5216 11.0984C47.5216 11.3295 47.4577 11.544 47.3298 11.7421C47.206 11.936 47.0141 12.0928 46.7542 12.2124C46.4943 12.3279 46.1662 12.3857 45.7702 12.3857Z" fill="black"/>
            <path d="M50.3246 12.3857C49.9945 12.3857 49.6872 12.3321 49.4025 12.2248C49.1219 12.1134 48.8764 11.9587 48.666 11.7606C48.4597 11.5585 48.2988 11.3212 48.1833 11.0489C48.0677 10.7766 48.01 10.4795 48.01 10.1577C48.01 9.83587 48.0677 9.53881 48.1833 9.26649C48.2988 8.99418 48.4618 8.759 48.6722 8.56096C48.8826 8.35879 49.1281 8.20406 49.4087 8.09679C49.6892 7.98539 49.9966 7.92969 50.3308 7.92969C50.6856 7.92969 51.0095 7.99158 51.3025 8.11536C51.5954 8.23501 51.843 8.41449 52.0451 8.65379L51.5253 9.14271C51.3685 8.97355 51.1931 8.84771 50.9992 8.76519C50.8053 8.67855 50.5949 8.63522 50.3679 8.63522C50.141 8.63522 49.9327 8.67236 49.7429 8.74662C49.5572 8.82089 49.3942 8.9261 49.2539 9.06226C49.1178 9.19841 49.0105 9.35933 48.9321 9.54499C48.8578 9.73066 48.8207 9.9349 48.8207 10.1577C48.8207 10.3805 48.8578 10.5847 48.9321 10.7704C49.0105 10.9561 49.1178 11.117 49.2539 11.2531C49.3942 11.3893 49.5572 11.4945 49.7429 11.5688C49.9327 11.643 50.141 11.6802 50.3679 11.6802C50.5949 11.6802 50.8053 11.6389 50.9992 11.5564C51.1931 11.4697 51.3685 11.3398 51.5253 11.1665L52.0451 11.6616C51.843 11.8968 51.5954 12.0763 51.3025 12.2C51.0095 12.3238 50.6836 12.3857 50.3246 12.3857Z" fill="black"/>
            <path d="M52.1127 12.3238L54.0622 7.99158H54.8544L56.8101 12.3238H55.9684L54.2912 8.41861H54.613L52.942 12.3238H52.1127ZM53.0101 11.3212L53.2267 10.6899H55.5661L55.7827 11.3212H53.0101Z" fill="black"/>
            <path d="M57.361 12.3238V7.99158H59.1434C59.5271 7.99158 59.8552 8.05347 60.1275 8.17724C60.4039 8.30102 60.6164 8.47844 60.7649 8.70949C60.9135 8.94054 60.9877 9.21492 60.9877 9.53262C60.9877 9.85031 60.9135 10.1247 60.7649 10.3557C60.6164 10.5827 60.4039 10.758 60.1275 10.8818C59.8552 11.0015 59.5271 11.0613 59.1434 11.0613H57.8066L58.1656 10.6961V12.3238H57.361ZM60.1955 12.3238L59.1001 10.7518H59.9604L61.062 12.3238H60.1955ZM58.1656 10.7828L57.8066 10.3991H59.1063C59.4611 10.3991 59.7273 10.3227 59.9047 10.1701C60.0862 10.0174 60.177 9.80493 60.177 9.53262C60.177 9.25618 60.0862 9.04369 59.9047 8.89516C59.7273 8.74662 59.4611 8.67236 59.1063 8.67236H57.8066L58.1656 8.27627V10.7828Z" fill="black"/>
            <path d="M63.9117 12.3857C63.5733 12.3857 63.2618 12.3321 62.9771 12.2248C62.6966 12.1134 62.4511 11.9587 62.2406 11.7606C62.0302 11.5585 61.8672 11.3212 61.7517 11.0489C61.6362 10.7766 61.5784 10.4795 61.5784 10.1577C61.5784 9.83587 61.6362 9.53881 61.7517 9.26649C61.8672 8.99418 62.0302 8.759 62.2406 8.56096C62.4552 8.35879 62.7048 8.20406 62.9895 8.09679C63.2742 7.98539 63.5857 7.92969 63.924 7.92969C64.2912 7.92969 64.6213 7.98951 64.9143 8.10917C65.2113 8.22882 65.4609 8.40417 65.6631 8.63522L65.1556 9.13034C64.9865 8.96117 64.8029 8.83739 64.6048 8.759C64.4109 8.67648 64.1963 8.63522 63.9612 8.63522C63.7342 8.63522 63.5238 8.67236 63.3299 8.74662C63.136 8.82089 62.9689 8.9261 62.8286 9.06226C62.6883 9.19841 62.579 9.35933 62.5006 9.54499C62.4263 9.73066 62.3892 9.9349 62.3892 10.1577C62.3892 10.3764 62.4263 10.5785 62.5006 10.7642C62.579 10.9499 62.6883 11.1129 62.8286 11.2531C62.9689 11.3893 63.1339 11.4945 63.3237 11.5688C63.5135 11.643 63.7239 11.6802 63.955 11.6802C64.1695 11.6802 64.3758 11.6472 64.5739 11.5811C64.776 11.511 64.9679 11.3955 65.1494 11.2346L65.6074 11.8349C65.3805 12.0164 65.1164 12.1547 64.8152 12.2495C64.5182 12.3403 64.217 12.3857 63.9117 12.3857ZM64.8462 11.7297V10.1082H65.6074V11.8349L64.8462 11.7297Z" fill="black"/>
            <path d="M66.0559 12.3238L68.0054 7.99158H68.7976L70.7533 12.3238H69.9116L68.2344 8.41861H68.5562L66.8852 12.3238H66.0559ZM66.9533 11.3212L67.1699 10.6899H69.5093L69.7259 11.3212H66.9533Z" fill="black"/>
            <path d="M71.3042 12.3238V7.99158H73.0866C73.4703 7.99158 73.7983 8.05347 74.0707 8.17724C74.3471 8.30102 74.5596 8.47844 74.7081 8.70949C74.8566 8.94054 74.9309 9.21492 74.9309 9.53262C74.9309 9.85031 74.8566 10.1247 74.7081 10.3557C74.5596 10.5827 74.3471 10.758 74.0707 10.8818C73.7983 11.0015 73.4703 11.0613 73.0866 11.0613H71.7498L72.1088 10.6961V12.3238H71.3042ZM74.1387 12.3238L73.0433 10.7518H73.9036L75.0052 12.3238H74.1387ZM72.1088 10.7828L71.7498 10.3991H73.0495C73.4043 10.3991 73.6704 10.3227 73.8479 10.1701C74.0294 10.0174 74.1202 9.80493 74.1202 9.53262C74.1202 9.25618 74.0294 9.04369 73.8479 8.89516C73.6704 8.74662 73.4043 8.67236 73.0495 8.67236H71.7498L72.1088 8.27627V10.7828Z" fill="black"/>
            <path d="M77.5415 12.3238V7.99158H79.3239C79.7076 7.99158 80.0356 8.05347 80.3079 8.17724C80.5844 8.30102 80.7968 8.47844 80.9454 8.70949C81.0939 8.94054 81.1682 9.21492 81.1682 9.53262C81.1682 9.85031 81.0939 10.1247 80.9454 10.3557C80.7968 10.5868 80.5844 10.7642 80.3079 10.888C80.0356 11.0118 79.7076 11.0737 79.3239 11.0737H77.9871L78.346 10.6961V12.3238H77.5415ZM78.346 10.7828L77.9871 10.3929H79.2867C79.6416 10.3929 79.9077 10.3186 80.0851 10.1701C80.2667 10.0174 80.3574 9.80493 80.3574 9.53262C80.3574 9.25618 80.2667 9.04369 80.0851 8.89516C79.9077 8.74662 79.6416 8.67236 79.2867 8.67236H77.9871L78.346 8.27627V10.7828Z" fill="black"/>
            <path d="M81.1413 12.3238L83.0909 7.99158H83.883L85.8387 12.3238H84.997L83.3198 8.41861H83.6417L81.9707 12.3238H81.1413ZM82.0387 11.3212L82.2553 10.6899H84.5948L84.8114 11.3212H82.0387Z" fill="black"/>
            <path d="M86.3897 12.3238V7.99158H88.1721C88.5558 7.99158 88.8838 8.05347 89.1561 8.17724C89.4326 8.30102 89.6451 8.47844 89.7936 8.70949C89.9421 8.94054 90.0164 9.21492 90.0164 9.53262C90.0164 9.85031 89.9421 10.1247 89.7936 10.3557C89.6451 10.5827 89.4326 10.758 89.1561 10.8818C88.8838 11.0015 88.5558 11.0613 88.1721 11.0613H86.8353L87.1942 10.6961V12.3238H86.3897ZM89.2242 12.3238L88.1288 10.7518H88.989L90.0907 12.3238H89.2242ZM87.1942 10.7828L86.8353 10.3991H88.135C88.4898 10.3991 88.7559 10.3227 88.9333 10.1701C89.1149 10.0174 89.2056 9.80493 89.2056 9.53262C89.2056 9.25618 89.1149 9.04369 88.9333 8.89516C88.7559 8.74662 88.4898 8.67236 88.135 8.67236H86.8353L87.1942 8.27627V10.7828Z" fill="black"/>
            <path d="M90.3038 12.3238L92.2533 7.99158H93.0455L95.0012 12.3238H94.1595L92.4823 8.41861H92.8042L91.1331 12.3238H90.3038ZM91.2012 11.3212L91.4178 10.6899H93.7572L93.9739 11.3212H91.2012Z" fill="black"/>
        </g>
    </g>
    <defs>
        <clipPath id="clip0_112_1290">
            <rect width="111.467" height="33" fill="white" transform="translate(0.905273)"/>
        </clipPath>
        <clipPath id="clip1_112_1290">
            <rect width="18.3333" height="21.2667" fill="white" transform="translate(6.77197 5.86719)"/>
        </clipPath>
    </defs>
</svg>
