<svg width="49" height="33" viewBox="0 0 49 33" fill="none" xmlns="http://www.w3.org/2000/svg">
    <rect x="0.857178" width="47.7143" height="33" rx="2" fill="white"/>
    <g clip-path="url(#clip0_112_1526)">
        <path d="M43.6602 9.38647H5.90234V23.1179H43.6602V9.38647Z" fill="#36904E"/>
        <path d="M38.1824 14.1723C38.1824 14.1723 38.4536 14.0386 38.6303 14.1277C38.8132 14.2168 42.548 18.2192 42.548 18.2192C42.548 18.2192 42.8193 18.5819 42.9518 18.5819C43.0843 18.5819 43.2231 16.9466 43.1347 16.4502C43.0464 15.9476 40.75 12.2252 40.1192 12.1361C39.4883 12.0343 38.1824 14.1723 38.1824 14.1723Z" fill="#FBB040"/>
        <path d="M41.8351 14.1334C41.8351 14.1334 41.5639 13.9998 41.3872 14.0889C41.2043 14.178 37.4695 18.1803 37.4695 18.1803C37.4695 18.1803 37.1982 18.543 37.0657 18.543C36.9333 18.543 36.7945 16.9077 36.8828 16.4114C36.9711 15.9087 39.2675 12.1864 39.8984 12.0973C40.5292 11.9955 41.8351 14.1334 41.8351 14.1334Z" fill="#ED1D24"/>
        <path d="M11.8442 13.9611C11.9704 13.9166 12.1786 13.8848 12.3805 13.8848C12.677 13.8848 12.8663 13.9611 13.005 14.1266C13.1249 14.2538 13.2006 14.4511 13.2006 14.7056C13.2006 15.0301 13.0492 15.3037 12.8158 15.4246V15.4373C13.0303 15.5137 13.2889 15.7682 13.2889 16.2582C13.2889 16.5382 13.2132 16.7609 13.0934 16.9136C12.9357 17.1236 12.6833 17.219 12.3111 17.219C12.1092 17.219 11.9515 17.1999 11.8569 17.1808V13.9611H11.8442ZM12.1344 15.3037H12.3994C12.7085 15.3037 12.8915 15.0619 12.8915 14.7501C12.8915 14.3684 12.6896 14.2156 12.3931 14.2156C12.2606 14.2156 12.1786 14.2284 12.1344 14.2475V15.3037ZM12.1344 16.8754C12.1975 16.8881 12.2732 16.8945 12.3805 16.8945C12.6833 16.8945 12.9672 16.7354 12.9672 16.2582C12.9672 15.8128 12.7022 15.6282 12.3805 15.6282H12.1344V16.8754Z" fill="white"/>
        <path d="M15.1628 15.9978C15.1628 16.8695 14.7401 17.2513 14.3489 17.2513C13.9073 17.2513 13.5667 16.7805 13.5667 16.036C13.5667 15.2533 13.9262 14.7888 14.3805 14.7888C14.841 14.7888 15.1628 15.2788 15.1628 15.9978ZM13.8632 16.0232C13.8632 16.5387 14.065 16.9268 14.3552 16.9268C14.6391 16.9268 14.8536 16.545 14.8536 16.0105C14.8536 15.6097 14.7148 15.107 14.3616 15.107C14.0146 15.107 13.8632 15.5778 13.8632 16.0232Z" fill="white"/>
        <path d="M16.9477 13.7324V16.5831C16.9477 16.793 16.954 17.0348 16.9603 17.1939H16.6953L16.6827 16.7867H16.6701C16.5818 17.0476 16.3862 17.2512 16.1212 17.2512C15.7238 17.2512 15.4146 16.7676 15.4146 16.0486C15.4083 15.2659 15.7553 14.7887 16.1464 14.7887C16.3988 14.7887 16.5691 14.9605 16.6385 15.145H16.6448V13.7388H16.9477V13.7324ZM16.6511 15.794C16.6511 15.7431 16.6448 15.6668 16.6385 15.6159C16.5944 15.3486 16.4303 15.1259 16.2095 15.1259C15.9004 15.1259 15.7175 15.5141 15.7175 16.0295C15.7175 16.5067 15.8815 16.9012 16.2032 16.9012C16.4051 16.9012 16.5881 16.704 16.6385 16.3858C16.6511 16.3285 16.6511 16.2713 16.6511 16.2013V15.794Z" fill="white"/>
        <path d="M17.6106 16.0932C17.6169 16.6723 17.8692 16.9141 18.172 16.9141C18.3865 16.9141 18.519 16.8632 18.6263 16.7932L18.683 17.0986C18.5758 17.1686 18.3928 17.2513 18.1342 17.2513C17.6295 17.2513 17.3267 16.7677 17.3267 16.0551C17.3267 15.3424 17.6169 14.7888 18.0963 14.7888C18.6326 14.7888 18.7714 15.4633 18.7714 15.896C18.7714 15.9851 18.7651 16.0487 18.7587 16.0932H17.6106ZM18.4875 15.7878C18.4938 15.5206 18.4118 15.0942 18.0774 15.0942C17.7746 15.0942 17.6421 15.4888 17.6232 15.7878H18.4875Z" fill="white"/>
        <path d="M20.5441 16.8512C20.5441 17.3984 20.4684 17.7229 20.3107 17.9329C20.1467 18.1429 19.9196 18.2129 19.7114 18.2129C19.5158 18.2129 19.3013 18.1429 19.1688 18.0156L19.2445 17.6848C19.3518 17.7866 19.5221 17.8756 19.724 17.8756C20.0268 17.8756 20.2539 17.6466 20.2539 17.0484V16.7876H20.2476C20.1593 17.0103 19.9826 17.1821 19.724 17.1821C19.3202 17.1821 19.03 16.6858 19.03 16.0304C19.03 15.2286 19.3896 14.7832 19.7682 14.7832C20.052 14.7832 20.2035 14.9932 20.2792 15.1904H20.2855L20.2981 14.8341H20.5631C20.5504 14.9995 20.5504 15.1968 20.5504 15.4768V16.8512H20.5441ZM20.2476 15.7695C20.2476 15.6931 20.2413 15.6359 20.2287 15.5786C20.1719 15.3241 20.0331 15.1204 19.8123 15.1204C19.5284 15.1204 19.3265 15.464 19.3265 16.0113C19.3265 16.4758 19.4906 16.8576 19.8123 16.8576C19.9953 16.8576 20.1656 16.6921 20.2224 16.4185C20.2413 16.3422 20.2476 16.2658 20.2476 16.1894V15.7695Z" fill="white"/>
        <path d="M22.184 16.628C22.184 16.8316 22.1903 17.0289 22.2093 17.1943H21.9443L21.9191 16.8952H21.9064C21.8181 17.0798 21.6415 17.2452 21.4081 17.2452C21.0737 17.2452 20.9097 16.908 20.9097 16.5707C20.9097 15.998 21.263 15.6863 21.8938 15.6926V15.6417C21.8938 15.4508 21.856 15.0945 21.5216 15.1009C21.3639 15.1009 21.2062 15.1645 21.0926 15.279L21.0232 14.9927C21.1557 14.8718 21.3576 14.7891 21.5658 14.7891C22.0705 14.7891 22.1903 15.279 22.1903 15.7499V16.628H22.184ZM21.9001 15.9917C21.5784 15.979 21.2062 16.068 21.2062 16.5198C21.2062 16.7998 21.3387 16.927 21.4838 16.927C21.6983 16.927 21.8371 16.7298 21.8875 16.5325C21.9001 16.4816 21.9001 16.4371 21.9001 16.3989V15.9917Z" fill="white"/>
        <path d="M23.3333 16.4363L23.1377 17.238H22.5068L23.3333 14.1074H24.1408L24.9862 17.238H24.3238L24.1156 16.4363H23.3333ZM24.0209 15.9018L23.8506 15.2337C23.8001 15.0492 23.756 14.8137 23.7118 14.6292H23.7055C23.6676 14.8137 23.6235 15.0555 23.5793 15.2337L23.4153 15.9018H24.0209Z" fill="white"/>
        <path d="M27.1186 16.5057C27.1186 16.8048 27.125 17.0466 27.1376 17.2375H26.6076L26.5824 16.9193H26.5698C26.4941 17.0593 26.3048 17.2884 25.9515 17.2884C25.5478 17.2884 25.2576 17.002 25.2576 16.2957V14.9595H25.8695V16.1812C25.8695 16.5121 25.9641 16.7093 26.1786 16.7093C26.349 16.7093 26.4499 16.5757 26.4878 16.4612C26.5067 16.4166 26.513 16.3657 26.513 16.3085V14.9531H27.125V16.5057H27.1186Z" fill="white"/>
        <path d="M27.6095 15.7121C27.6095 15.3749 27.6032 15.1586 27.5906 14.9613H28.1142L28.1394 15.3813H28.1584C28.2593 15.044 28.499 14.9104 28.6883 14.9104C28.7451 14.9104 28.7703 14.9168 28.8145 14.9231V15.5912C28.764 15.5849 28.7198 15.5722 28.6504 15.5722C28.4233 15.5722 28.2719 15.7121 28.2341 15.9285C28.2278 15.973 28.2215 16.0303 28.2215 16.0876V17.2393H27.6095V15.7121Z" fill="white"/>
        <path d="M29.1422 15.7121C29.1422 15.3749 29.1359 15.1586 29.1233 14.9613H29.6469L29.6722 15.3813H29.6911C29.792 15.044 30.0317 14.9104 30.221 14.9104C30.2778 14.9104 30.303 14.9168 30.3472 14.9231V15.5912C30.2967 15.5849 30.2526 15.5722 30.1832 15.5722C29.956 15.5722 29.8046 15.7121 29.7668 15.9285C29.7605 15.973 29.7542 16.0303 29.7542 16.0876V17.2393H29.1422V15.7121Z" fill="white"/>
        <path d="M31.1111 16.3286C31.1301 16.6213 31.3824 16.7613 31.6663 16.7613C31.8745 16.7613 32.0448 16.7295 32.2088 16.6659L32.2909 17.1431C32.089 17.2385 31.8429 17.2894 31.578 17.2894C30.9092 17.2894 30.5244 16.844 30.5244 16.1314C30.5244 15.5523 30.8335 14.916 31.5212 14.916C32.1584 14.916 32.3981 15.4887 32.3981 16.0486C32.3981 16.1695 32.3855 16.2777 32.3792 16.3286H31.1111ZM31.8366 15.845C31.8366 15.6732 31.7735 15.3869 31.4897 15.3869C31.231 15.3869 31.1237 15.6605 31.1111 15.845H31.8366Z" fill="white"/>
        <path d="M32.7704 15.7121C32.7704 15.3749 32.7641 15.1586 32.7515 14.9613H33.2751L33.3003 15.3813H33.3193C33.4202 15.044 33.6599 14.9104 33.8492 14.9104C33.906 14.9104 33.9312 14.9168 33.9754 14.9231V15.5912C33.9249 15.5849 33.8807 15.5722 33.8113 15.5722C33.5842 15.5722 33.4328 15.7121 33.395 15.9285C33.3886 15.973 33.3823 16.0303 33.3823 16.0876V17.2393H32.7704V15.7121Z" fill="white"/>
        <path d="M35.8932 16.6923C35.8932 16.9087 35.8995 17.1186 35.9247 17.2395H35.3758L35.338 17.0105H35.3254C35.1929 17.1886 34.9973 17.2904 34.7639 17.2904C34.3664 17.2904 34.1267 16.9532 34.1267 16.5905C34.1267 15.9987 34.5872 15.7188 35.2812 15.7188V15.6933C35.2812 15.5661 35.2244 15.3943 34.9216 15.3943C34.7197 15.3943 34.5052 15.4706 34.3791 15.5661L34.2655 15.1079C34.4043 15.0188 34.6756 14.9043 35.0289 14.9043C35.685 14.9043 35.8932 15.3497 35.8932 15.8906V16.6923ZM35.3064 16.1642C34.9847 16.1642 34.7323 16.2533 34.7323 16.5205C34.7323 16.705 34.8396 16.7878 34.9721 16.7878C35.1235 16.7878 35.2497 16.6732 35.2875 16.5269C35.2938 16.4887 35.3001 16.4505 35.3001 16.406V16.1642H35.3064Z" fill="white"/>
        <path d="M5.85107 14.0117V20.3493C5.85107 20.3493 7.44719 21.0047 9.59216 21.0556C11.7371 21.1065 43.7035 21.0556 43.7035 21.0556V20.2857H17.0239C17.0239 20.2857 10.0905 19.6939 5.85107 14.0117Z" fill="#FBB040"/>
        <path d="M9.59256 21.7618C8.10369 21.6664 5.91456 20.9219 5.91456 20.9219L5.87671 22.6399C8.02168 22.6908 43.6724 22.6399 43.6724 22.6399V21.87H14.2547C14.2547 21.87 11.0814 21.8572 9.59256 21.7618Z" fill="#ED1D24"/>
    </g>
    <defs>
        <clipPath id="clip0_112_1526">
            <rect width="39.4877" height="14.9353" fill="white" transform="translate(5.38184 9.0332)"/>
        </clipPath>
    </defs>
</svg>
