<svg width="125" height="124" viewBox="0 0 125 124" fill="none" xmlns="http://www.w3.org/2000/svg">
    <g filter="url(#filter0_d_1_2174)">
        <rect x="14.5" y="15" width="80" height="80" rx="40" fill="url(#paint0_linear_1_2174)"/>
    </g>
    <path d="M51.7418 56.2355L54.4968 54.1602L57.2043 56.2355C57.4893 56.4575 57.7743 56.4768 58.0593 56.2838C58.3443 56.0907 58.4393 55.8205 58.3443 55.4633L57.2993 52.0367L60.1968 49.7683C60.4533 49.5463 60.5198 49.2664 60.4153 48.9479C60.3108 48.6293 60.0733 48.4653 59.7218 48.4653H56.2543L55.1618 44.8938C55.0668 44.5753 54.8483 44.4015 54.4968 44.3822C54.1453 44.3629 53.9268 44.5367 53.8318 44.8938L52.6918 48.4653H49.2718C48.9203 48.4653 48.6923 48.6293 48.5783 48.9479C48.4643 49.2664 48.5403 49.5463 48.7968 49.7683L51.6943 52.0367L50.6493 55.4633C50.5543 55.8205 50.6493 56.0907 50.9343 56.2838C51.2193 56.4768 51.4853 56.4575 51.7418 56.2355ZM45.1868 74.9131C44.7118 75.0772 44.2748 75.0097 43.8758 74.7201C43.4768 74.4305 43.2773 74.0251 43.2773 73.5135V60.8687C41.8523 59.3533 40.8263 57.7027 40.2088 55.8977C39.5913 54.0927 39.2778 52.278 39.2778 50.444C39.2968 46.0714 40.7503 42.4035 43.6668 39.4402C46.5833 36.4768 50.1933 35 54.4968 35C58.8003 35 62.4103 36.4768 65.3268 39.4402C68.2433 42.4035 69.6968 46.0714 69.6968 50.444C69.6968 52.278 69.3833 54.0927 68.7658 55.8977C68.1483 57.7027 67.1223 59.3533 65.6973 60.8687V73.5135C65.6973 74.0251 65.4978 74.4305 65.0988 74.7201C64.6998 75.0097 64.2628 75.0772 63.7878 74.9131L54.4778 71.7278L45.1678 74.9131H45.1868ZM54.4968 62.9923C57.9453 62.9923 60.8713 61.7761 63.2653 59.3436C65.6593 56.9112 66.8563 53.9479 66.8563 50.4344C66.8563 46.9208 65.6593 43.9575 63.2653 41.5251C60.8713 39.0927 57.9548 37.8764 54.4968 37.8764C51.0388 37.8764 48.1223 39.0927 45.7283 41.5251C43.3343 43.9575 42.1373 46.9208 42.1373 50.4344C42.1373 53.9479 43.3343 56.9112 45.7283 59.3436C48.1223 61.7761 51.0388 62.9923 54.4968 62.9923Z" fill="url(#paint1_linear_1_2174)"/>
    <defs>
        <filter id="filter0_d_1_2174" x="0.5" y="0" width="124" height="124" filterUnits="userSpaceOnUse" color-interpolation-filters="sRGB">
            <feFlood flood-opacity="0" result="BackgroundImageFix"/>
            <feColorMatrix in="SourceAlpha" type="matrix" values="0 0 0 0 0 0 0 0 0 0 0 0 0 0 0 0 0 0 127 0" result="hardAlpha"/>
            <feOffset dx="8" dy="7"/>
            <feGaussianBlur stdDeviation="11"/>
            <feComposite in2="hardAlpha" operator="out"/>
            <feColorMatrix type="matrix" values="0 0 0 0 0.937255 0 0 0 0 0.278431 0 0 0 0 0.227451 0 0 0 0.3 0"/>
            <feBlend mode="normal" in2="BackgroundImageFix" result="effect1_dropShadow_1_2174"/>
            <feBlend mode="normal" in="SourceGraphic" in2="effect1_dropShadow_1_2174" result="shape"/>
        </filter>
        <linearGradient id="paint0_linear_1_2174" x1="57.8816" y1="41.576" x2="-2.31323" y2="0.849648" gradientUnits="userSpaceOnUse">
            <stop offset="0.00208493" stop-color="#09091D"/>
            <stop offset="1" stop-color="#EF473A"/>
        </linearGradient>
        <linearGradient id="paint1_linear_1_2174" x1="39.2966" y1="35" x2="69.6966" y2="75" gradientUnits="userSpaceOnUse">
            <stop stop-color="#CB2D3E"/>
            <stop offset="1" stop-color="#EF473A"/>
        </linearGradient>
    </defs>
</svg>
