<svg width="100" height="33" viewBox="0 0 100 33" fill="none" xmlns="http://www.w3.org/2000/svg">
    <g clip-path="url(#clip0_112_1319)">
        <path d="M91.233 0.00010725H8.23794C7.93541 0.00010725 7.63651 0.00010725 7.33478 0.00175725C7.08221 0.00340725 6.83165 0.0082005 6.57665 0.0122347C6.02267 0.0187537 5.47 0.0674902 4.92343 0.15802C4.37763 0.250522 3.84893 0.424913 3.35521 0.675295C2.86209 0.927796 2.41151 1.2559 2.01982 1.64769C1.62608 2.03838 1.29786 2.48997 1.04779 2.98509C0.797031 3.47922 0.623155 4.00873 0.532165 4.55533C0.44031 5.10123 0.390882 5.65344 0.384325 6.20698C0.376669 6.45992 0.37586 6.71371 0.371826 6.96669V26.036C0.37586 26.2921 0.376669 26.5403 0.384325 26.7965C0.390884 27.35 0.440312 27.9022 0.532165 28.4481C0.622903 28.995 0.79679 29.5248 1.04779 30.0191C1.29774 30.5127 1.62601 30.9624 2.01982 31.3509C2.41003 31.7445 2.86089 32.0728 3.35521 32.3234C3.84893 32.5744 4.37757 32.7498 4.92343 32.8438C5.47009 32.9336 6.02271 32.9823 6.57665 32.9896C6.83165 32.9952 7.08221 32.9985 7.33478 32.9985C7.6365 33.0001 7.93543 33.0001 8.23794 33.0001H91.233C91.5295 33.0001 91.8308 33.0001 92.1273 32.9985C92.3787 32.9985 92.6365 32.9952 92.8879 32.9896C93.4408 32.9827 93.9923 32.934 94.5379 32.8438C95.0855 32.7492 95.616 32.5738 96.1121 32.3234C96.606 32.0726 97.0565 31.7443 97.4463 31.3509C97.8391 30.9609 98.1681 30.5115 98.4212 30.0191C98.6703 29.5245 98.8425 28.9947 98.9319 28.4481C99.0239 27.9021 99.0751 27.3501 99.085 26.7965C99.0882 26.5403 99.0882 26.2921 99.0882 26.036C99.0947 25.7362 99.0947 25.4382 99.0947 25.1336V7.86741C99.0947 7.56529 99.0947 7.26558 99.0882 6.96669C99.0882 6.71371 99.0882 6.45992 99.085 6.20695C99.0751 5.65336 99.0239 5.10128 98.9319 4.5553C98.8422 4.00901 98.67 3.47955 98.4212 2.98506C97.9119 1.99264 97.1044 1.18483 96.1121 0.675221C95.616 0.42545 95.0854 0.251106 94.5379 0.157946C93.9924 0.067017 93.4408 0.0182637 92.8879 0.0121192C92.6365 0.00809325 92.3787 0.00325875 92.1273 0.00165C91.8308 0 91.5295 0.00010725 91.233 0.00010725Z" fill="black"/>
        <path d="M7.33879 32.2782C7.08743 32.2782 6.84214 32.275 6.59275 32.2693C6.07612 32.2626 5.5607 32.2176 5.05071 32.1348C4.57517 32.0529 4.11451 31.9005 3.6839 31.6828C3.25725 31.4668 2.8681 31.1836 2.53138 30.8441C2.18978 30.5085 1.90538 30.1194 1.68946 29.692C1.47115 29.2618 1.32007 28.8007 1.24148 28.3248C1.15661 27.8134 1.11069 27.2963 1.10412 26.7779C1.09889 26.6039 1.09204 26.0246 1.09204 26.0246V6.96663C1.09204 6.96663 1.09933 6.39622 1.10416 6.22863C1.11045 5.7111 1.1561 5.19479 1.24072 4.68418C1.31946 4.20693 1.47066 3.74452 1.68908 3.31294C1.90421 2.88585 2.18703 2.49638 2.52657 2.15963C2.86573 1.81969 3.25612 1.53505 3.6835 1.3161C4.11311 1.09903 4.57291 0.947753 5.04749 0.867347C5.55915 0.783664 6.07636 0.738421 6.59478 0.731997L7.3392 0.721924H92.1232L92.8765 0.732401C93.3903 0.738506 93.9028 0.783345 94.4097 0.866538C94.8891 0.947953 95.3537 1.10028 95.7882 1.31851C96.6444 1.75976 97.3411 2.45786 97.7806 3.31496C97.9955 3.74355 98.1444 4.20219 98.2221 4.67532C98.3078 5.19012 98.3557 5.71048 98.3655 6.23226C98.3679 6.4659 98.3679 6.71687 98.3679 6.96663C98.3744 7.276 98.3744 7.57047 98.3744 7.86736V25.1335C98.3744 25.4332 98.3744 25.7257 98.3679 26.0205C98.3679 26.2888 98.3679 26.5346 98.3647 26.7875C98.3551 27.3 98.3079 27.8111 98.2237 28.3167C98.1467 28.7961 97.9965 29.2607 97.7782 29.6944C97.5607 30.1172 97.278 30.503 96.9403 30.8376C96.6033 31.179 96.2135 31.4639 95.7858 31.6812C95.3525 31.9007 94.8886 32.0536 94.4097 32.1348C93.8998 32.2181 93.3843 32.2631 92.8676 32.2693C92.626 32.275 92.373 32.2782 92.1273 32.2782L91.233 32.2798L7.33879 32.2782Z" fill="white"/>
        <path d="M20.9941 16.4086C21.0034 15.6925 21.1936 14.9904 21.547 14.3676C21.9005 13.7448 22.4058 13.2215 23.0159 12.8465C22.6283 12.293 22.117 11.8375 21.5227 11.5161C20.9283 11.1948 20.2671 11.0165 19.5918 10.9954C18.1511 10.8441 16.7545 11.8574 16.0204 11.8574C15.272 11.8574 14.1417 11.0104 12.9246 11.0354C12.1373 11.0609 11.37 11.2898 10.6975 11.6999C10.025 12.1101 9.47023 12.6874 9.0872 13.3757C7.42803 16.2483 8.66562 20.4702 10.255 22.7922C11.0502 23.9293 11.9795 25.1994 13.1956 25.1543C14.3856 25.105 14.83 24.3955 16.2664 24.3955C17.6895 24.3955 18.1065 25.1543 19.3472 25.1257C20.6241 25.105 21.4286 23.9836 22.1959 22.8358C22.7673 22.0256 23.2069 21.1302 23.4986 20.1827C22.7567 19.8689 22.1237 19.3437 21.6783 18.6726C21.2329 18.0015 20.995 17.2141 20.9941 16.4086Z" fill="black"/>
        <path d="M18.6507 9.46829C19.347 8.63251 19.69 7.55824 19.6069 6.47363C18.5432 6.58535 17.5607 7.09371 16.8551 7.89743C16.5101 8.29007 16.2458 8.74686 16.0775 9.24168C15.9091 9.7365 15.8399 10.2596 15.8739 10.7812C16.4059 10.7867 16.9322 10.6714 17.4132 10.444C17.8942 10.2165 18.3174 9.88294 18.6507 9.46829Z" fill="black"/>
        <path d="M35.2708 22.3903H31.3657L30.428 25.1594H28.7739L32.4727 14.9146H34.1912L37.89 25.1594H36.2078L35.2708 22.3903ZM31.7702 21.1125H34.8656L33.3397 16.6185H33.2969L31.7702 21.1125Z" fill="black"/>
        <path d="M45.8782 21.4252C45.8782 23.7463 44.6358 25.2376 42.7611 25.2376C42.2861 25.2624 41.8138 25.153 41.3982 24.9219C40.9826 24.6908 40.6404 24.3473 40.4109 23.9308H40.3755V27.6304H38.8423V17.6901H40.3263V18.9325H40.3545C40.5946 18.5179 40.9425 18.1762 41.3613 17.9437C41.7801 17.7112 42.2541 17.5965 42.7328 17.612C44.6286 17.612 45.8782 19.1105 45.8782 21.4252ZM44.3023 21.4252C44.3023 19.913 43.5208 18.9188 42.3284 18.9188C41.157 18.9188 40.369 19.9339 40.369 21.4252C40.369 22.9302 41.157 23.9381 42.3284 23.9381C43.5208 23.9381 44.3023 22.9511 44.3023 21.4252Z" fill="black"/>
        <path d="M54.0995 21.4252C54.0995 23.7463 52.8568 25.2376 50.982 25.2376C50.5071 25.2624 50.0348 25.153 49.6191 24.9219C49.2035 24.6908 48.8614 24.3473 48.6319 23.9308H48.5964V27.6304H47.0632V17.6901H48.5473V18.9325H48.5755C48.8155 18.5179 49.1634 18.1762 49.5822 17.9437C50.001 17.7112 50.475 17.5965 50.9538 17.612C52.8495 17.612 54.0995 19.1105 54.0995 21.4252ZM52.5232 21.4252C52.5232 19.913 51.7417 18.9188 50.5494 18.9188C49.3779 18.9188 48.59 19.9339 48.59 21.4252C48.59 22.9302 49.3779 23.9381 50.5494 23.9381C51.7417 23.9381 52.5232 22.9511 52.5232 21.4252Z" fill="black"/>
        <path d="M59.5321 22.3049C59.6457 23.3208 60.6327 23.9879 61.9813 23.9879C63.2736 23.9879 64.2034 23.3208 64.2034 22.4047C64.2034 21.6095 63.6426 21.1334 62.3149 20.8071L60.9872 20.4872C59.1059 20.0328 58.2326 19.1531 58.2326 17.7254C58.2326 15.9578 59.773 14.7437 61.9596 14.7437C64.1252 14.7437 65.6093 15.9578 65.6592 17.7254H64.1115C64.0189 16.703 63.1737 16.0859 61.9386 16.0859C60.7035 16.0859 59.8584 16.7103 59.8584 17.6191C59.8584 18.3434 60.3982 18.7696 61.7187 19.0958L62.8474 19.373C64.9494 19.8701 65.8219 20.7144 65.8219 22.2129C65.8219 24.1296 64.296 25.3301 61.8677 25.3301C59.5957 25.3301 58.0617 24.1578 57.9626 22.3048L59.5321 22.3049Z" fill="black"/>
        <path d="M69.1326 15.9224V17.69H70.5529V18.9041H69.1326V23.0219C69.1326 23.6616 69.417 23.9597 70.0414 23.9597C70.21 23.9567 70.3783 23.9449 70.5457 23.9242V25.1311C70.265 25.1835 69.9796 25.2073 69.6941 25.202C68.1819 25.202 67.5921 24.634 67.5921 23.1854V18.9041H66.5061V17.69H67.5921V15.9224H69.1326Z" fill="black"/>
        <path d="M71.3745 21.425C71.3745 19.0749 72.7586 17.5981 74.917 17.5981C77.0826 17.5981 78.4603 19.0749 78.4603 21.425C78.4603 23.7816 77.0899 25.2519 74.917 25.2519C72.7449 25.2519 71.3745 23.7816 71.3745 21.425ZM76.8981 21.425C76.8981 19.8129 76.1593 18.8614 74.917 18.8614C73.6747 18.8614 72.9359 19.8202 72.9359 21.425C72.9359 23.0436 73.6747 23.9879 74.917 23.9879C76.1593 23.9879 76.8981 23.0436 76.8981 21.425Z" fill="black"/>
        <path d="M79.7246 17.6901H81.1869V18.9614H81.2224C81.3213 18.5643 81.5539 18.2134 81.8811 17.9677C82.2083 17.7219 82.6101 17.5963 83.019 17.6119C83.1957 17.6113 83.3719 17.6305 83.5443 17.6691V19.1032C83.3212 19.035 83.0886 19.0037 82.8554 19.0105C82.6327 19.0015 82.4106 19.0408 82.2045 19.1257C81.9984 19.2105 81.8131 19.339 81.6613 19.5023C81.5095 19.6655 81.3949 19.8597 81.3252 20.0715C81.2556 20.2832 81.2326 20.5075 81.2578 20.729V25.1594H79.7246L79.7246 17.6901Z" fill="black"/>
        <path d="M90.613 22.9655C90.4068 24.3214 89.0863 25.2519 87.3968 25.2519C85.2239 25.2519 83.8752 23.7961 83.8752 21.4605C83.8752 19.1176 85.2312 17.5981 87.3323 17.5981C89.3989 17.5981 90.6984 19.0177 90.6984 21.2824V21.8077H85.4229V21.9004C85.3986 22.1753 85.433 22.4522 85.5239 22.7128C85.6148 22.9733 85.7601 23.2116 85.9501 23.4117C86.1402 23.6118 86.3706 23.7692 86.6262 23.8734C86.8817 23.9776 87.1565 24.0262 87.4323 24.0161C87.7946 24.05 88.1581 23.9661 88.4689 23.7768C88.7797 23.5875 89.0211 23.303 89.1572 22.9655L90.613 22.9655ZM85.4302 20.7362H89.1644C89.1782 20.489 89.1407 20.2417 89.0544 20.0097C88.968 19.7777 88.8346 19.5661 88.6626 19.388C88.4906 19.21 88.2836 19.0695 88.0547 18.9753C87.8258 18.8811 87.5798 18.8352 87.3323 18.8405C87.0827 18.839 86.8352 18.887 86.6041 18.9816C86.3731 19.0763 86.1631 19.2158 85.9863 19.392C85.8094 19.5683 85.6692 19.7778 85.5738 20.0085C85.4783 20.2392 85.4295 20.4865 85.4302 20.7362Z" fill="black"/>
        <path d="M31.5784 7.2031C31.8998 7.18003 32.2224 7.22859 32.5228 7.34527C32.8232 7.46195 33.0939 7.64385 33.3155 7.87784C33.5371 8.11183 33.704 8.39208 33.8041 8.69838C33.9043 9.00468 33.9352 9.32939 33.8947 9.64909C33.8947 11.2217 33.0447 12.1257 31.5784 12.1257H29.8003V7.2031H31.5784ZM30.5649 11.4296H31.493C31.7227 11.4433 31.9525 11.4056 32.1658 11.3193C32.3791 11.233 32.5705 11.1002 32.726 10.9307C32.8815 10.7611 32.9972 10.5589 33.0648 10.339C33.1323 10.119 33.1499 9.88676 33.1164 9.65912C33.1475 9.43238 33.1281 9.20157 33.0595 8.98322C32.9909 8.76488 32.8749 8.5644 32.7198 8.39616C32.5646 8.22791 32.3742 8.09607 32.1621 8.01008C31.95 7.92408 31.7215 7.88606 31.493 7.89874H30.5649V11.4296Z" fill="black"/>
        <path d="M38.0841 11.1227C37.9844 11.4623 37.7686 11.756 37.4744 11.9524C37.1801 12.1489 36.8261 12.2357 36.4743 12.1975C36.2296 12.204 35.9864 12.1571 35.7616 12.0601C35.5367 11.9632 35.3357 11.8184 35.1724 11.636C35.0092 11.4536 34.8876 11.2378 34.816 11.0036C34.7445 10.7695 34.7248 10.5226 34.7583 10.28C34.7257 10.0367 34.7457 9.78929 34.8171 9.55444C34.8884 9.31959 35.0094 9.1028 35.1718 8.91877C35.3343 8.73473 35.5343 8.58774 35.7585 8.48774C35.9826 8.38775 36.2257 8.33708 36.4711 8.33917C37.5048 8.33917 38.1284 9.04537 38.1284 10.2119V10.4678H35.5052V10.5088C35.4937 10.6452 35.5108 10.7824 35.5555 10.9117C35.6001 11.041 35.6713 11.1596 35.7645 11.2598C35.8576 11.36 35.9707 11.4396 36.0964 11.4936C36.2221 11.5475 36.3577 11.5746 36.4945 11.5731C36.6699 11.5941 36.8476 11.5626 37.0049 11.4824C37.1623 11.4022 37.2923 11.277 37.3783 11.1227L38.0841 11.1227ZM35.5051 9.92553H37.3815C37.3907 9.80085 37.3738 9.67562 37.3318 9.55788C37.2897 9.44013 37.2235 9.33249 37.1374 9.24185C37.0513 9.15122 36.9471 9.07961 36.8317 9.03161C36.7163 8.98362 36.5921 8.96031 36.4671 8.96317C36.3403 8.96158 36.2144 8.9854 36.097 9.0332C35.9795 9.08101 35.8728 9.15184 35.7832 9.24153C35.6936 9.33122 35.6228 9.43795 35.575 9.55542C35.5273 9.67289 35.5035 9.79874 35.5051 9.92553Z" fill="black"/>
        <path d="M40.4705 8.33911C41.3059 8.33911 41.8522 8.72784 41.9239 9.38285H41.2205C41.1529 9.11013 40.8862 8.93611 40.4705 8.93611C40.0612 8.93611 39.7502 9.13028 39.7502 9.42031C39.7502 9.64224 39.938 9.78206 40.3408 9.8743L40.9579 10.0173C41.6645 10.1813 41.9956 10.485 41.9956 11.0308C41.9956 11.7302 41.3438 12.1974 40.4568 12.1974C39.5729 12.1974 38.9969 11.7982 38.9316 11.14H39.6656C39.7288 11.2967 39.8429 11.4275 39.9894 11.5116C40.136 11.5957 40.3065 11.6281 40.4737 11.6037C40.9305 11.6037 41.2552 11.3991 41.2552 11.1021C41.2552 10.8806 41.0812 10.7372 40.7089 10.6485L40.0612 10.4983C39.3546 10.3311 39.0275 10.0141 39.0275 9.46139C39.0275 8.80277 39.631 8.33911 40.4705 8.33911Z" fill="black"/>
        <path d="M45.4157 9.625C45.3689 9.43237 45.2547 9.26284 45.0938 9.14712C44.9329 9.0314 44.7358 8.97714 44.5383 8.99417C43.9244 8.99417 43.5489 9.46467 43.5489 10.2562C43.5489 11.0615 43.9276 11.5425 44.5383 11.5425C44.7339 11.5651 44.9309 11.5156 45.0925 11.4031C45.2541 11.2907 45.369 11.123 45.4157 10.9318H46.1287C46.0815 11.308 45.8893 11.6508 45.5929 11.8873C45.2966 12.1237 44.9196 12.235 44.5423 12.1975C44.2939 12.2053 44.0468 12.1588 43.8183 12.0612C43.5897 11.9636 43.3853 11.8172 43.2192 11.6323C43.0532 11.4474 42.9295 11.2284 42.8569 10.9908C42.7843 10.7531 42.7645 10.5024 42.7989 10.2563C42.7662 10.012 42.7873 9.76345 42.8606 9.52811C42.9339 9.29278 43.0577 9.07628 43.2233 8.89373C43.389 8.71118 43.5924 8.56699 43.8196 8.47121C44.0467 8.37543 44.292 8.33037 44.5383 8.33919C44.9187 8.30416 45.2977 8.41892 45.5947 8.65907C45.8917 8.89921 46.0833 9.24578 46.1287 9.62503L45.4157 9.625Z" fill="black"/>
        <path d="M46.8562 11.0752C46.8562 10.4065 47.3541 10.021 48.2379 9.96616L49.2442 9.90816V9.58751C49.2442 9.19514 48.9848 8.97359 48.4836 8.97359C48.0744 8.97359 47.7908 9.12385 47.7094 9.38649H46.9996C47.0745 8.74841 47.6748 8.33913 48.5175 8.33913C49.4488 8.33913 49.9741 8.80278 49.9741 9.58751V12.1257H49.2684V11.6037H49.2104C49.0926 11.791 48.9273 11.9436 48.7312 12.0461C48.5352 12.1486 48.3155 12.1972 48.0945 12.187C47.9386 12.2032 47.7809 12.1865 47.6318 12.1381C47.4827 12.0897 47.3454 12.0105 47.2287 11.9058C47.112 11.801 47.0186 11.673 46.9544 11.5299C46.8903 11.3869 46.8568 11.232 46.8562 11.0752ZM49.2442 10.7577V10.4471L48.337 10.5052C47.8254 10.5394 47.5934 10.7134 47.5934 11.0409C47.5934 11.3753 47.8834 11.5698 48.2823 11.5698C48.3991 11.5817 48.5172 11.5699 48.6294 11.5351C48.7416 11.5004 48.8456 11.4435 48.9354 11.3677C49.0251 11.2919 49.0987 11.1989 49.1518 11.0941C49.2048 10.9893 49.2363 10.8749 49.2442 10.7577ZM48.0776 7.78966L48.934 6.61621H49.7937L48.8349 7.78966H48.0776Z" fill="black"/>
        <path d="M51.1223 8.41084H51.8281V8.98044H51.8829C51.9619 8.78271 52.1015 8.6151 52.2817 8.50169C52.4619 8.38828 52.6735 8.33489 52.8859 8.3492C52.9957 8.34773 53.1054 8.35799 53.213 8.37982V9.10334C53.0785 9.07459 52.9413 9.05974 52.8037 9.05903C52.6828 9.04817 52.561 9.06273 52.446 9.10177C52.331 9.14081 52.2255 9.20346 52.1362 9.28571C52.0469 9.36796 51.9758 9.46798 51.9274 9.57935C51.8791 9.69071 51.8546 9.81096 51.8555 9.93237V12.1258H51.1223L51.1223 8.41084Z" fill="black"/>
        <path d="M53.8864 12.4975H54.6368C54.6989 12.767 55.0091 12.9411 55.5037 12.9411C56.1144 12.9411 56.4762 12.651 56.4762 12.16V11.4469H56.4214C56.3064 11.6465 56.1385 11.8104 55.9361 11.9206C55.7338 12.0307 55.505 12.0827 55.2749 12.0709C54.3267 12.0709 53.7397 11.3378 53.7397 10.2256C53.7397 9.09283 54.3331 8.34917 55.2822 8.34917C55.518 8.34096 55.7515 8.39771 55.9573 8.51322C56.163 8.62874 56.333 8.79858 56.4488 9.00418H56.5068V8.4108H57.2093V12.1563C57.2093 13.0059 56.5439 13.5449 55.4933 13.5449C54.5652 13.5449 53.9645 13.1288 53.8864 12.4975ZM56.4899 10.2219C56.4899 9.48191 56.1072 9.0078 55.4828 9.0078C54.852 9.0078 54.4975 9.48193 54.4975 10.2219C54.4975 10.9623 54.852 11.4365 55.4828 11.4365C56.1112 11.4365 56.4899 10.966 56.4899 10.2219Z" fill="black"/>
        <path d="M58.1658 11.0751C58.1658 10.4064 58.6637 10.0209 59.5475 9.96614L60.5538 9.90814V9.58749C60.5538 9.19512 60.2943 8.97357 59.7932 8.97357C59.3839 8.97357 59.1003 9.12383 59.019 9.38647H58.3092C58.3841 8.74839 58.9843 8.33911 59.8271 8.33911C60.7584 8.33911 61.2837 8.80276 61.2837 9.58749V12.1257H60.5779V11.6037H60.5199C60.4022 11.7909 60.2369 11.9436 60.0408 12.0461C59.8448 12.1485 59.6251 12.1972 59.4041 12.1869C59.2481 12.2032 59.0905 12.1865 58.9414 12.1381C58.7923 12.0897 58.6549 12.0105 58.5383 11.9058C58.4216 11.801 58.3282 11.673 58.264 11.5299C58.1998 11.3869 58.1664 11.2319 58.1658 11.0751ZM60.5538 10.7577V10.4471L59.6466 10.5051C59.135 10.5394 58.903 10.7134 58.903 11.0409C58.903 11.3752 59.193 11.5698 59.5918 11.5698C59.7087 11.5816 59.8267 11.5698 59.9389 11.5351C60.0511 11.5004 60.1552 11.4435 60.245 11.3677C60.3347 11.2919 60.4083 11.1989 60.4613 11.0941C60.5144 10.9893 60.5458 10.8749 60.5538 10.7577Z" fill="black"/>
        <path d="M62.4656 6.96069H63.1987V12.1258H62.4656V6.96069Z" fill="black"/>
        <path d="M64.2178 10.2666C64.1944 10.0225 64.2223 9.77617 64.2997 9.54347C64.3772 9.31076 64.5024 9.0968 64.6673 8.91532C64.8323 8.73383 65.0333 8.58882 65.2576 8.4896C65.4819 8.39037 65.7244 8.33911 65.9697 8.33911C66.2149 8.33911 66.4575 8.39037 66.6817 8.4896C66.906 8.58882 67.1071 8.73383 67.272 8.91532C67.437 9.0968 67.5622 9.31076 67.6396 9.54347C67.717 9.77617 67.7449 10.0225 67.7216 10.2666C67.7454 10.511 67.7178 10.7577 67.6406 10.9907C67.5634 11.2238 67.4382 11.4382 67.2732 11.62C67.1083 11.8019 66.907 11.9472 66.6825 12.0466C66.458 12.1461 66.2152 12.1974 65.9697 12.1974C65.7241 12.1974 65.4813 12.1461 65.2568 12.0466C65.0323 11.9472 64.8311 11.8019 64.6661 11.62C64.5011 11.4382 64.376 11.2238 64.2988 10.9907C64.2216 10.7577 64.194 10.511 64.2178 10.2666ZM66.9675 10.2666C66.9675 9.46137 66.6057 8.99046 65.9709 8.99046C65.3336 8.99046 64.9751 9.46137 64.9751 10.2666C64.9751 11.0783 65.3336 11.5456 65.9709 11.5456C66.6057 11.5456 66.9675 11.0751 66.9675 10.2666Z" fill="black"/>
        <path d="M73.8624 11.1227C73.7628 11.4623 73.547 11.756 73.2527 11.9524C72.9584 12.1489 72.6044 12.2357 72.2527 12.1975C72.0079 12.204 71.7647 12.1571 71.5399 12.0601C71.3151 11.9632 71.114 11.8184 70.9508 11.636C70.7875 11.4536 70.6659 11.2378 70.5944 11.0036C70.5228 10.7695 70.5031 10.5226 70.5366 10.28C70.504 10.0367 70.5241 9.78929 70.5954 9.55444C70.6668 9.31959 70.7877 9.1028 70.9502 8.91877C71.1126 8.73473 71.3126 8.58774 71.5368 8.48774C71.761 8.38775 72.004 8.33708 72.2494 8.33917C73.2831 8.33917 73.9067 9.04537 73.9067 10.2119V10.4678H71.2834V10.5088C71.272 10.6452 71.2891 10.7824 71.3338 10.9117C71.3784 11.041 71.4496 11.1596 71.5427 11.2598C71.6359 11.36 71.7489 11.4396 71.8747 11.4936C72.0004 11.5475 72.136 11.5746 72.2728 11.5731C72.4482 11.5941 72.6258 11.5626 72.7832 11.4824C72.9406 11.4022 73.0706 11.277 73.1566 11.1227L73.8624 11.1227ZM71.2834 9.92553H73.1598C73.169 9.80085 73.1521 9.67562 73.1101 9.55788C73.068 9.44013 73.0018 9.33249 72.9157 9.24185C72.8296 9.15122 72.7254 9.07961 72.61 9.03161C72.4946 8.98362 72.3704 8.96031 72.2454 8.96317C72.1186 8.96158 71.9927 8.98539 71.8753 9.03319C71.7578 9.081 71.6511 9.15183 71.5615 9.24152C71.4718 9.33121 71.401 9.43794 71.3533 9.55541C71.3055 9.67289 71.2818 9.79873 71.2834 9.92553Z" fill="black"/>
        <path d="M74.8914 8.41082H75.5971V9.00096H75.6519C75.7448 8.789 75.9016 8.61132 76.1003 8.49268C76.299 8.37404 76.5298 8.32035 76.7605 8.33911C76.9413 8.32552 77.1228 8.35277 77.2915 8.41885C77.4603 8.48493 77.6121 8.58814 77.7356 8.72084C77.8591 8.85353 77.9511 9.01231 78.0049 9.18541C78.0587 9.35852 78.0729 9.5415 78.0463 9.72082V12.1257H77.3132V9.90492C77.3132 9.30793 77.0538 9.01104 76.5115 9.01104C76.3888 9.00532 76.2663 9.02621 76.1524 9.07227C76.0385 9.11833 75.9359 9.18847 75.8517 9.27789C75.7674 9.36731 75.7035 9.47388 75.6643 9.59032C75.6251 9.70675 75.6115 9.83028 75.6245 9.95245V12.1257H74.8914V8.41082Z" fill="black"/>
        <path d="M84.337 11.1227C84.2374 11.4623 84.0216 11.756 83.7273 11.9524C83.433 12.1489 83.079 12.2357 82.7273 12.1975C82.4825 12.204 82.2393 12.1571 82.0145 12.0601C81.7897 11.9632 81.5886 11.8184 81.4254 11.636C81.2621 11.4536 81.1405 11.2378 81.069 11.0036C80.9974 10.7695 80.9777 10.5226 81.0112 10.28C80.9786 10.0367 80.9987 9.78929 81.07 9.55444C81.1414 9.31959 81.2624 9.1028 81.4248 8.91877C81.5872 8.73473 81.7872 8.58774 82.0114 8.48774C82.2356 8.38775 82.4786 8.33708 82.724 8.33917C83.7577 8.33917 84.3813 9.04537 84.3813 10.2119V10.4678H81.758V10.5088C81.7466 10.6452 81.7637 10.7824 81.8084 10.9117C81.853 11.041 81.9242 11.1596 82.0173 11.2598C82.1105 11.36 82.2236 11.4396 82.3493 11.4936C82.475 11.5475 82.6106 11.5746 82.7474 11.5731C82.9228 11.5941 83.1005 11.5626 83.2578 11.4824C83.4152 11.4022 83.5452 11.277 83.6312 11.1227L84.337 11.1227ZM81.758 9.92553H83.6344C83.6437 9.80085 83.6267 9.67562 83.5847 9.55788C83.5426 9.44013 83.4764 9.33249 83.3903 9.24185C83.3042 9.15122 83.2001 9.07961 83.0846 9.03161C82.9692 8.98362 82.845 8.96031 82.72 8.96317C82.5932 8.96158 82.4674 8.98539 82.3499 9.03319C82.2324 9.08099 82.1257 9.15183 82.0361 9.24152C81.9464 9.33121 81.8757 9.43793 81.8279 9.55541C81.7802 9.67289 81.7564 9.79873 81.758 9.92553Z" fill="black"/>
        <path d="M85.3997 6.96069H86.1328V12.1258H85.3997V6.96069Z" fill="black"/>
    </g>
    <defs>
        <clipPath id="clip0_112_1319">
            <rect width="98.7228" height="33" fill="white" transform="translate(0.371826)"/>
        </clipPath>
    </defs>
</svg>
