<svg width="109" height="46" viewBox="0 0 109 46" fill="none" xmlns="http://www.w3.org/2000/svg">
    <g clip-path="url(#clip0_34_2342)">
        <path d="M52.5837 21.9835H56.302L62.2223 29.7296V21.9835H66.1692V36.6296H62.6739L56.5278 28.591V36.6296H52.5837V21.9835Z" fill="#F5333F"/>
        <path d="M68.1555 21.9834H74.3239C77.9614 21.9834 80.3027 23.8887 80.3027 27.1343V27.174C80.3027 30.6297 77.6938 32.4527 74.1176 32.4527H72.1442V36.6296H68.1555V21.9834ZM74.034 29.2696C75.4528 29.2696 76.3168 28.5143 76.3168 27.3643V27.3217C76.3168 26.0666 75.4528 25.3965 74.0145 25.3965H72.1442V29.2696H74.034Z" fill="white"/>
        <path d="M81.3103 29.3522V29.3125C81.3103 25.1015 84.4349 21.6884 88.5992 21.6884C92.7634 21.6884 95.8462 25.0618 95.8462 29.2699V29.3125C95.8462 33.5206 92.7216 36.9337 88.5574 36.9337C84.3931 36.9337 81.3103 33.5632 81.3103 29.3522ZM92.0304 29.3522V29.3125C92.0304 27.1971 90.6228 25.3542 88.5601 25.3542C86.4975 25.3542 85.1485 27.1545 85.1485 29.2699V29.3125C85.1485 31.4251 86.5561 33.2679 88.5992 33.2679C90.6423 33.2679 92.0304 31.4677 92.0304 29.3522Z" fill="white"/>
        <path d="M95.7375 21.9835V25.5414H99.8712V36.6381H103.86V25.5414H108.465V21.9835H95.7375Z" fill="white"/>
        <path d="M105.635 35.059H106.092L106.463 35.6721L106.834 35.059H107.291V36.6429H106.862V35.7346L106.471 36.3449L106.076 35.7289V36.6344H105.635V35.059Z" fill="white"/>
        <path d="M107.589 35.0595H108.325C108.416 35.0514 108.508 35.0627 108.595 35.0925C108.681 35.1223 108.761 35.17 108.829 35.2326C108.876 35.2808 108.913 35.3385 108.937 35.4021C108.961 35.4656 108.972 35.5336 108.968 35.6016C108.972 35.7069 108.942 35.8105 108.885 35.898C108.827 35.9856 108.745 36.0526 108.648 36.0898L109.019 36.6405H108.523L108.208 36.1608H108.018V36.6405H107.589V35.0595ZM108.302 35.8202C108.45 35.8202 108.534 35.7492 108.534 35.6328C108.534 35.5079 108.447 35.4455 108.302 35.4455H108.024V35.8259L108.302 35.8202Z" fill="white"/>
        <path d="M48.3878 21.9835C47.7802 23.1533 47.1818 24.327 46.5928 25.5044V36.6296H50.601V21.9835H48.3878Z" fill="#F5333F"/>
        <path d="M62.0164 0.0683239C61.7655 -0.54217 59.7029 0.636225 59.3935 0.795237C58.0032 1.55395 56.7072 2.4796 55.5331 3.5524C53.1212 5.75241 50.929 8.19018 48.9884 10.8301C45.0862 15.9809 41.8389 21.5861 38.9262 27.3588C37.7806 29.6304 36.7214 31.902 35.7235 34.2475C35.4113 34.9744 35.166 35.8206 34.734 36.4907C34.4553 36.945 34.4776 36.1897 34.5166 35.9228C34.9709 32.646 35.5786 29.3919 36.189 26.1322C36.6405 23.7441 38.1847 16.8044 38.4774 15.7225C38.6223 15.1944 38.8732 14.6151 38.8063 14.0586C38.7501 13.7161 38.6068 13.3945 38.3906 13.126C38.1744 12.8575 37.893 12.6513 37.5743 12.5281C36.0831 11.9602 35.0796 13.4254 34.2295 14.422C33.1564 15.6856 32.1585 17.0117 31.2053 18.3718C29.282 21.1233 27.512 23.9912 25.8647 26.9215C25.179 28.1369 24.5714 29.3919 23.9136 30.6129C23.6349 31.1467 23.5429 30.7151 23.6572 30.3289C23.8523 29.656 24.0112 28.9688 24.1895 28.2873C25.0703 24.9623 26.0877 21.677 26.9602 18.3491C27.6821 15.5919 28.4458 12.7126 28.5907 9.84759C28.6465 8.71178 28.5907 7.54191 28.1197 6.50265C27.8714 5.96438 27.5136 5.48603 27.07 5.0993C26.6265 4.71257 26.1073 4.42629 25.547 4.25944C23.0384 3.45018 20.251 4.54339 18.0351 5.71326C15.298 7.17277 12.873 9.16611 10.6431 11.3298C8.32239 13.5459 6.20628 15.9744 4.32146 18.5847C2.54593 21.0835 0.781555 23.8833 0.249175 26.9698C-0.00447223 28.4407 -0.00447258 30.1131 0.745319 31.4449C0.884685 31.6891 1.42543 32.6346 1.84074 32.4415C2.06094 32.3365 1.9383 32.0213 1.85746 31.8594C1.67271 31.5519 1.52927 31.2205 1.431 30.8741C1.10489 29.3238 1.69301 27.6967 2.37591 26.3309C3.08081 24.974 3.94673 23.7104 4.95419 22.5686C7.0607 20.1646 9.35879 17.9422 11.825 15.9241C14.1669 13.9 16.7239 12.1494 19.4483 10.7051C20.1646 10.3388 20.9367 9.88734 21.7534 9.82771C23.0885 9.72833 22.7401 11.1594 22.5562 12.0312C21.8426 15.3903 20.8364 18.687 19.9584 22.0035C19.0804 25.3201 18.1912 28.7104 17.7536 32.1406C17.4275 34.6961 17.1711 37.7912 18.3389 40.1906C18.5641 40.6946 18.8977 41.1407 19.3151 41.4955C19.7325 41.8504 20.2229 42.1051 20.75 42.2407C21.3447 42.371 21.9623 42.3424 22.543 42.1579C23.1237 41.9733 23.6477 41.6389 24.0641 41.1872C24.5057 40.6459 24.839 40.0218 25.0453 39.3501C25.324 38.5664 25.6473 37.7912 25.9567 37.0132C26.5978 35.4003 27.2482 33.7913 27.9078 32.186C29.204 29.0285 30.5084 25.8709 31.9746 22.7901C32.7021 21.2652 33.463 19.7489 34.3048 18.2838C34.7257 17.5512 35.1828 16.8413 35.651 16.1399C35.782 15.9412 36.4872 14.6265 36.766 14.7344C37.0447 14.8423 36.4622 16.4864 36.4064 16.722L35.7848 19.1924C35.3584 20.8961 34.9486 22.5714 34.5055 24.2581C33.6581 27.6002 32.7717 30.9508 32.0554 34.3582C31.7125 36.0222 31.3836 37.7031 31.1941 39.3927C31.0934 40.231 31.0497 41.0754 31.0631 41.9198C31.077 42.6041 31.1272 43.2601 31.484 43.8564C31.7992 44.3728 32.2617 44.779 32.8096 45.0205C33.3575 45.262 33.9647 45.3274 34.55 45.208C36.0162 44.9013 36.5513 43.6718 37.1005 42.4111C39.8683 36.0392 42.9371 29.8036 46.0673 23.6107C49.0469 17.7159 52.1548 11.8466 55.9902 6.47425C56.8844 5.19705 57.8622 3.98277 58.9169 2.83968C59.4477 2.26373 60.0238 1.73288 60.6394 1.2524C60.9656 0.999682 61.3084 0.769681 61.6568 0.551039C61.8269 0.454496 62.1195 0.32388 62.0164 0.0683239Z" fill="#EF3842"/>
    </g>
    <defs>
        <clipPath id="clip0_34_2342">
            <rect width="108.985" height="46" fill="white"/>
        </clipPath>
    </defs>
</svg>
