<svg width="47" height="33" viewBox="0 0 47 33" fill="none" xmlns="http://www.w3.org/2000/svg">
    <rect width="47" height="33" rx="2" fill="white"/>
    <path fill-rule="evenodd" clip-rule="evenodd" d="M23.8357 23.5908C22.2355 25.0047 20.1599 25.8582 17.8919 25.8582C12.8311 25.8582 8.72852 21.6087 8.72852 16.3666C8.72852 11.1245 12.8311 6.875 17.8919 6.875C20.1599 6.875 22.2355 7.72853 23.8357 9.14242C25.4358 7.72853 27.5114 6.875 29.7795 6.875C34.8402 6.875 38.9428 11.1245 38.9428 16.3666C38.9428 21.6087 34.8402 25.8582 29.7795 25.8582C27.5114 25.8582 25.4358 25.0047 23.8357 23.5908Z" fill="#ED0006"/>
    <path fill-rule="evenodd" clip-rule="evenodd" d="M23.8357 23.5908C25.8059 21.8499 27.0552 19.2594 27.0552 16.3666C27.0552 13.4739 25.8059 10.8834 23.8357 9.14242C25.4358 7.72853 27.5114 6.875 29.7795 6.875C34.8403 6.875 38.9428 11.1245 38.9428 16.3666C38.9428 21.6087 34.8403 25.8582 29.7795 25.8582C27.5114 25.8582 25.4358 25.0047 23.8357 23.5908Z" fill="#F9A000"/>
    <path fill-rule="evenodd" clip-rule="evenodd" d="M23.8357 9.14258C25.8059 10.8835 27.0552 13.474 27.0552 16.3667C27.0552 19.2595 25.8059 21.8499 23.8357 23.5909C21.8655 21.8499 20.6162 19.2595 20.6162 16.3667C20.6162 13.474 21.8655 10.8835 23.8357 9.14258Z" fill="#FF5E00"/>
</svg>
