<svg width="124" height="124" viewBox="0 0 124 124" fill="none" xmlns="http://www.w3.org/2000/svg">
    <g filter="url(#filter0_d_1_2179)">
        <path d="M14 55C14 32.9086 31.9086 15 54 15C76.0914 15 94 32.9086 94 55C94 77.0914 76.0914 95 54 95C31.9086 95 14 77.0914 14 55Z" fill="url(#paint0_linear_1_2179)"/>
        <path d="M44.7137 72C47.8967 74 51.199 75 54.6206 75L54.6298 75.0091C57.4092 75.0091 60.0236 74.4818 62.4728 73.4364C64.922 72.3909 67.0593 70.9546 68.8939 69.1364C70.7286 67.3182 72.1779 65.2 73.2328 62.7727C74.2877 60.3455 74.8198 57.7546 74.8198 55H72.0678C72.0678 57.3636 71.6092 59.6 70.6919 61.7091C69.7746 63.8182 68.527 65.6455 66.9492 67.2091C65.3715 68.7727 63.5277 70.0091 61.3995 70.9182C59.2714 71.8273 57.0148 72.2818 54.6298 72.2818C51.6577 72.2818 48.7315 71.3455 45.8419 69.4818C42.9524 67.6182 40.7234 65.5182 39.1639 63.1818H43.6129V60.4545H34.4398V69.5455H37.1917V65.1364C39.0263 67.7091 41.5306 70 44.7137 72Z" fill="url(#paint1_linear_1_2179)"/>
        <path d="M43.9798 38L45.4475 40.3182V40.3091C46.7959 39.4909 48.2361 38.8545 49.7864 38.4C51.3366 37.9455 52.9511 37.7182 54.6298 37.7182C57.6294 37.7182 60.5648 38.6545 63.4359 40.5182C66.3071 42.3818 68.527 44.4818 70.0864 46.8182H65.6375V49.5455H74.8106V40.4545H72.0587V44.8636C70.224 42.2909 67.7198 40 64.5367 38C61.3537 36 58.0513 35 54.6298 35C52.6667 35 50.7954 35.2545 49.0067 35.7727C47.2179 36.2909 45.5392 37.0273 43.9798 38Z" fill="url(#paint2_linear_1_2179)"/>
        <path d="M37.9714 49.6818L39.9436 54.2273L41.9159 49.6818L46.6859 47.5909L41.9159 45.5455L39.9436 41.2273L37.9714 45.5455L33.2014 47.5909L37.9714 49.6818Z" fill="url(#paint3_linear_1_2179)"/>
        <path d="M53.673 67.6818C53.939 67.9273 54.2325 68.0455 54.5719 68.0455L54.5903 68.0637C54.9297 68.0637 55.2141 67.9364 55.4617 67.6727C55.7094 67.4091 55.8287 67.1182 55.8287 66.7818V65.6909C57.6633 65.4727 59.1126 64.8637 60.1675 63.8455C61.2224 62.8273 61.7545 61.5273 61.7545 59.9546C61.7545 58.3818 61.3142 57.1182 60.4427 56.1818C59.5713 55.2455 58.0577 54.4273 55.9204 53.7273C53.994 53.0909 52.6639 52.4546 51.9484 51.8364C51.2238 51.2091 50.866 50.4 50.866 49.4C50.866 48.4546 51.2146 47.7273 51.9026 47.1909C52.5906 46.6546 53.5354 46.3909 54.7279 46.3909C55.4617 46.3909 56.1222 46.5273 56.7001 46.8C57.278 47.0727 57.7825 47.4818 58.2137 48.0273C58.4246 48.2727 58.6907 48.4364 58.9934 48.5273C59.2961 48.6182 59.5896 48.5909 59.8648 48.4364C60.2042 48.2818 60.4335 48.0455 60.5345 47.7091C60.6354 47.3727 60.5803 47.0727 60.3693 46.8C59.8465 46.0727 59.2135 45.5 58.4613 45.0727C57.7091 44.6455 56.856 44.3909 55.9112 44.3V43.2091C55.9112 42.8727 55.792 42.5909 55.5443 42.3455C55.2966 42.1 55.0123 41.9818 54.6728 41.9818C54.3334 41.9818 54.0399 42.1 53.7739 42.3455C53.5079 42.5909 53.3794 42.8727 53.3794 43.2091V44.3C51.82 44.5091 50.5908 45.0727 49.6827 45.9818C48.7745 46.8909 48.3251 48.0273 48.3251 49.3909C48.3251 50.8727 48.7195 52.0546 49.4992 52.9364C50.2789 53.8182 51.7283 54.6455 53.8381 55.4364C56.0121 56.2546 57.4431 56.9637 58.1494 57.5727C58.8558 58.1818 59.2044 58.9364 59.2044 59.9364C59.2044 60.9364 58.7916 61.7818 57.966 62.4637C57.1404 63.1455 56.1314 63.4909 54.9389 63.4909C53.9298 63.4909 53.0033 63.2455 52.1594 62.7637C51.3155 62.2818 50.6642 61.6 50.2055 60.7182C50.0496 60.4727 49.8478 60.2909 49.5818 60.1455C49.3158 60 49.0497 59.9818 48.7745 60.0727C48.3709 60.2273 48.1049 60.4637 47.9673 60.7818C47.8297 61.1 47.8756 61.4273 48.0866 61.7637C48.7012 62.7637 49.4258 63.5727 50.2698 64.2C51.1137 64.8273 52.1136 65.2909 53.2785 65.5909V66.8182C53.2785 67.1546 53.407 67.4364 53.673 67.6818Z" fill="url(#paint4_linear_1_2179)"/>
    </g>
    <defs>
        <filter id="filter0_d_1_2179" x="0" y="0" width="124" height="124" filterUnits="userSpaceOnUse" color-interpolation-filters="sRGB">
            <feFlood flood-opacity="0" result="BackgroundImageFix"/>
            <feColorMatrix in="SourceAlpha" type="matrix" values="0 0 0 0 0 0 0 0 0 0 0 0 0 0 0 0 0 0 127 0" result="hardAlpha"/>
            <feOffset dx="8" dy="7"/>
            <feGaussianBlur stdDeviation="11"/>
            <feComposite in2="hardAlpha" operator="out"/>
            <feColorMatrix type="matrix" values="0 0 0 0 0.12549 0 0 0 0 0.894118 0 0 0 0 0.709804 0 0 0 0.3 0"/>
            <feBlend mode="normal" in2="BackgroundImageFix" result="effect1_dropShadow_1_2179"/>
            <feBlend mode="normal" in="SourceGraphic" in2="effect1_dropShadow_1_2179" result="shape"/>
        </filter>
        <linearGradient id="paint0_linear_1_2179" x1="57.3816" y1="41.576" x2="-2.81323" y2="0.849648" gradientUnits="userSpaceOnUse">
            <stop stop-color="#09091D"/>
            <stop offset="1" stop-color="#29FFC6"/>
        </linearGradient>
        <linearGradient id="paint1_linear_1_2179" x1="33.2014" y1="35" x2="74.8014" y2="75" gradientUnits="userSpaceOnUse">
            <stop stop-color="#0CEBEB"/>
            <stop offset="0.555726" stop-color="#20E3B2"/>
            <stop offset="1" stop-color="#29FFC6"/>
        </linearGradient>
        <linearGradient id="paint2_linear_1_2179" x1="33.2014" y1="35" x2="74.8014" y2="75" gradientUnits="userSpaceOnUse">
            <stop stop-color="#0CEBEB"/>
            <stop offset="0.555726" stop-color="#20E3B2"/>
            <stop offset="1" stop-color="#29FFC6"/>
        </linearGradient>
        <linearGradient id="paint3_linear_1_2179" x1="33.2014" y1="35" x2="74.8014" y2="75" gradientUnits="userSpaceOnUse">
            <stop stop-color="#0CEBEB"/>
            <stop offset="0.555726" stop-color="#20E3B2"/>
            <stop offset="1" stop-color="#29FFC6"/>
        </linearGradient>
        <linearGradient id="paint4_linear_1_2179" x1="33.2014" y1="35" x2="74.8014" y2="75" gradientUnits="userSpaceOnUse">
            <stop stop-color="#0CEBEB"/>
            <stop offset="0.555726" stop-color="#20E3B2"/>
            <stop offset="1" stop-color="#29FFC6"/>
        </linearGradient>
    </defs>
</svg>
