<svg width="48" height="33" viewBox="0 0 48 33" fill="none" xmlns="http://www.w3.org/2000/svg">
    <rect width="48" height="33" rx="2" fill="white"/>
    <g clip-path="url(#clip0_112_1477)">
        <path fill-rule="evenodd" clip-rule="evenodd" d="M17.4561 22.8065V13.241H22.4944C23.5167 13.241 23.8087 13.314 24.6119 13.7521C25.4152 14.1902 25.5612 15.2125 25.5612 15.7966C25.5612 15.8536 25.5619 15.9119 25.5626 15.9717C25.5692 16.5253 25.5773 17.2035 25.0501 18.0602C24.4812 18.9847 23.4968 19.1473 23.0411 19.2227C23.0288 19.2247 23.017 19.2266 23.0055 19.2286C22.5674 19.3016 20.4498 19.2286 20.4498 19.2286V22.8065H17.4561ZM20.4498 17.3301V15.2125C20.4498 15.2125 21.6912 15.1395 22.0563 15.2125C22.4214 15.2855 22.7134 15.5776 22.7865 16.3078C22.8595 17.038 22.1293 17.3301 21.8372 17.3301H20.4498Z" fill="#323184"/>
        <path d="M26.4009 13.3687V22.9159H34.506V20.8531H29.4312V18.6443H34.0314V16.7093H29.4312V15.7235H34.506V13.3687H26.4009Z" fill="#F3921A"/>
        <path d="M35.6013 16.4172H36.6966V14.3727L38.6681 17.0014V13.2043H35.6013V16.4172Z" fill="#323184"/>
        <path d="M35.6013 18.4619H36.6966V20.4334L38.6681 17.8047V22.77H35.6013V18.4619Z" fill="#323184"/>
        <path d="M39.7693 14.1521V13.3665H40.103C40.187 13.3665 40.2483 13.3738 40.2863 13.3876C40.3242 13.4015 40.3549 13.4271 40.3775 13.4628C40.4002 13.4986 40.4119 13.5402 40.4119 13.587C40.4119 13.6461 40.3943 13.6943 40.36 13.733C40.3257 13.7717 40.2739 13.7958 40.2045 13.8053C40.2388 13.825 40.2673 13.8477 40.2892 13.871C40.3111 13.8944 40.3418 13.9375 40.3797 13.9988L40.4754 14.1521H40.2855L40.1709 13.9813C40.13 13.9199 40.1023 13.882 40.0869 13.8659C40.0716 13.8498 40.0563 13.8389 40.0395 13.833C40.0227 13.8272 39.9964 13.8243 39.9599 13.8243H39.9277V14.1521H39.7693ZM39.9277 13.6987H40.0453C40.1212 13.6987 40.1687 13.6958 40.1877 13.6892C40.2067 13.6826 40.2213 13.6717 40.2322 13.6556C40.2432 13.6395 40.2483 13.6206 40.2483 13.5965C40.2483 13.5702 40.241 13.549 40.2271 13.5322C40.2132 13.5154 40.1928 13.5059 40.1672 13.5015C40.1541 13.5001 40.1161 13.4986 40.0511 13.4986H39.927V13.698L39.9277 13.6987Z" fill="#323184"/>
        <path d="M40.1227 14.5188C39.7043 14.5188 39.3633 14.1778 39.3633 13.7594C39.3633 13.341 39.7043 13 40.1227 13C40.5411 13 40.8821 13.341 40.8821 13.7594C40.8821 14.1778 40.5411 14.5188 40.1227 14.5188ZM40.1227 13.146C39.7846 13.146 39.5093 13.4213 39.5093 13.7594C39.5093 14.0975 39.7846 14.3728 40.1227 14.3728C40.4608 14.3728 40.736 14.0975 40.736 13.7594C40.736 13.4213 40.4608 13.146 40.1227 13.146Z" fill="#323184"/>
        <path d="M8 19.6302L10.7747 19.4842C10.8843 19.9858 11.0332 20.4875 11.3677 20.7474C11.7021 21.0074 11.8781 21.1374 12.4797 21.1374C13.142 21.1374 13.2026 21.0154 13.5363 20.7701C13.7612 20.5992 13.8737 20.3692 13.8737 20.0822C13.8737 19.8865 13.8131 19.7244 13.6911 19.5959C13.5633 19.474 13.2778 19.2148 12.8339 19.1103C10.7674 18.6518 9.89631 18.2327 9.34283 17.8537C8.57685 17.3279 8.41329 16.7431 8.41329 15.807C8.41329 14.9628 8.81782 14.3999 9.4801 13.8245C10.1424 13.2505 11.0237 13.1089 12.4155 13.1089C13.8072 13.1089 14.7251 13.3258 15.3691 13.7602C16.0131 14.1947 16.1906 15.0928 16.4337 15.9428L13.659 16.0888C13.5553 15.7098 13.4735 15.3206 13.1851 15.1184C12.8967 14.9168 12.5637 14.7745 12.1986 14.7745C11.8335 14.7745 11.6685 14.838 11.3764 15.0271C11.1822 15.1615 11.0843 15.336 11.0843 15.5499C11.0843 15.7332 11.169 15.8895 11.3399 16.018C11.5706 16.1896 11.8576 16.2845 13.2216 16.597C14.5856 16.9088 15.3925 17.3645 15.9335 17.8164C16.4681 18.275 16.736 18.9147 16.736 19.7339C16.736 20.627 16.3651 21.3944 15.6239 22.037C14.8821 22.6788 13.9314 23.0001 12.479 23.0001C11.1603 23.0001 9.97006 22.7314 9.2019 22.1925C8.433 21.6543 8.23731 20.5539 8 19.6302Z" fill="#323184"/>
    </g>
    <defs>
        <clipPath id="clip0_112_1477">
            <rect width="32.8821" height="10" fill="white" transform="translate(8 13)"/>
        </clipPath>
    </defs>
</svg>
