<svg width="125" height="124" viewBox="0 0 125 124" fill="none" xmlns="http://www.w3.org/2000/svg">
    <g filter="url(#filter0_d_1_2164)">
        <rect x="14.5" y="15" width="80" height="80" rx="40" fill="url(#paint0_linear_1_2164)"/>
    </g>
    <path d="M57.3498 75L56.8322 69.5H54.7616C49.8232 69.5 45.6199 67.82 42.131 64.45C38.6421 61.08 36.9028 57.02 36.9028 52.25C36.9028 47.48 38.6524 43.42 42.1621 40.05C45.6614 36.68 49.8957 35 54.8651 35C57.3188 35 59.5861 35.43 61.6774 36.28C63.7687 37.13 65.5908 38.32 67.1437 39.86C68.6967 41.39 69.9183 43.2 70.7983 45.29C71.6783 47.38 72.1235 49.65 72.1235 52.12C72.1235 56.59 70.819 60.9 68.2101 65.05C65.6011 69.2 61.988 72.53 57.3602 75.03L57.3498 75ZM54.8651 63.85C55.4138 63.85 55.8797 63.67 56.2628 63.3C56.6458 62.93 56.8322 62.48 56.8322 61.95C56.8322 61.42 56.6458 60.97 56.2628 60.6C55.8797 60.23 55.4138 60.05 54.8651 60.05C54.3164 60.05 53.8505 60.23 53.4675 60.6C53.0844 60.97 52.8981 61.42 52.8981 61.95C52.8981 62.48 53.0844 62.93 53.4675 63.3C53.8505 63.67 54.3164 63.85 54.8651 63.85ZM54.7616 57.05C55.1032 57.05 55.4138 56.93 55.6727 56.7C55.9315 56.47 56.0971 56.17 56.1696 55.8C56.2731 55.33 56.4905 54.88 56.8218 54.45C57.1531 54.02 57.6604 53.47 58.3541 52.8C59.2858 51.9 59.9381 51.07 60.3211 50.32C60.7042 49.57 60.8905 48.76 60.8905 47.89C60.8905 46.39 60.3625 45.16 59.3065 44.19C58.2505 43.22 56.8425 42.74 55.0825 42.74C53.8712 42.74 52.7635 43 51.7385 43.52C50.7136 44.04 49.8957 44.76 49.2745 45.7C49.0675 46 49.0364 46.31 49.171 46.63C49.3056 46.95 49.5644 47.19 49.9475 47.36C50.227 47.46 50.5169 47.46 50.8275 47.36C51.1381 47.26 51.3969 47.08 51.6039 46.81C51.987 46.28 52.4632 45.88 53.0327 45.63C53.6021 45.38 54.2336 45.25 54.9272 45.25C55.9625 45.25 56.7701 45.49 57.3602 45.98C57.9503 46.46 58.2402 47.11 58.2402 47.91C58.2402 48.54 58.0538 49.19 57.6708 49.84C57.2877 50.49 56.6148 51.3 55.652 52.27C54.9272 53 54.4096 53.61 54.099 54.1C53.7884 54.59 53.6021 55.16 53.5296 55.83C53.4985 56.16 53.6021 56.46 53.8402 56.71C54.0783 56.96 54.3889 57.09 54.772 57.09L54.7616 57.05ZM59.9381 66.5V69.6C62.7644 67.3 64.9903 64.59 66.595 61.47C68.1997 58.35 69.0072 55.23 69.0072 52.09C69.0072 47.96 67.6717 44.57 64.9903 41.94C62.3089 39.31 58.9442 37.99 54.8651 37.99C50.7861 37.99 47.2143 39.38 44.3258 42.17C41.4477 44.95 39.9983 48.31 39.9983 52.25C39.9983 56.19 41.4374 59.54 44.3258 62.33C47.2039 65.11 50.6825 66.51 54.7616 66.51H59.9381V66.5Z" fill="url(#paint1_linear_1_2164)"/>
    <defs>
        <filter id="filter0_d_1_2164" x="0.5" y="0" width="124" height="124" filterUnits="userSpaceOnUse" color-interpolation-filters="sRGB">
            <feFlood flood-opacity="0" result="BackgroundImageFix"/>
            <feColorMatrix in="SourceAlpha" type="matrix" values="0 0 0 0 0 0 0 0 0 0 0 0 0 0 0 0 0 0 127 0" result="hardAlpha"/>
            <feOffset dx="8" dy="7"/>
            <feGaussianBlur stdDeviation="11"/>
            <feComposite in2="hardAlpha" operator="out"/>
            <feColorMatrix type="matrix" values="0 0 0 0 0.356863 0 0 0 0 0.52549 0 0 0 0 0.898039 0 0 0 0.3 0"/>
            <feBlend mode="normal" in2="BackgroundImageFix" result="effect1_dropShadow_1_2164"/>
            <feBlend mode="normal" in="SourceGraphic" in2="effect1_dropShadow_1_2164" result="shape"/>
        </filter>
        <linearGradient id="paint0_linear_1_2164" x1="57.8816" y1="41.576" x2="-2.31323" y2="0.849648" gradientUnits="userSpaceOnUse">
            <stop offset="0.00208493" stop-color="#09091D"/>
            <stop offset="1" stop-color="#36D1DC"/>
        </linearGradient>
        <linearGradient id="paint1_linear_1_2164" x1="36.9028" y1="35" x2="72.1028" y2="75" gradientUnits="userSpaceOnUse">
            <stop stop-color="#5B86E5"/>
            <stop offset="1" stop-color="#36D1DC"/>
        </linearGradient>
    </defs>
</svg>
