<svg width="26" height="26" viewBox="0 0 26 26" fill="none" xmlns="http://www.w3.org/2000/svg">
    <path d="M21.9375 0H4.0625C1.81884 0 0 1.81884 0 4.0625V21.9375C0 24.1812 1.81884 26 4.0625 26H21.9375C24.1812 26 26 24.1812 26 21.9375V4.0625C26 1.81884 24.1812 0 21.9375 0Z" fill="#2F3B52"/>
    <g clip-path="url(#clip0_112_1432)">
        <path d="M14.0665 12.0018L18.7996 6.5H17.678L13.5683 11.2771L10.2859 6.5H6.5L11.4636 13.7239L6.5 19.4933H7.62164L11.9616 14.4485L15.4281 19.4933H19.2139L14.0662 12.0018H14.0665ZM12.5303 13.7875L12.0274 13.0682L8.02579 7.34436H9.74857L12.9779 11.9637L13.4808 12.683L17.6785 18.6874H15.9557L12.5303 13.7878V13.7875Z" fill="white"/>
        <g clip-path="url(#clip1_112_1432)">
            <path d="M14.0665 12.0018L18.7996 6.5H17.678L13.5683 11.2771L10.2859 6.5H6.5L11.4636 13.7239L6.5 19.4933H7.62164L11.9616 14.4485L15.4281 19.4933H19.2139L14.0662 12.0018H14.0665ZM12.5303 13.7875L12.0274 13.0682L8.02579 7.34436H9.74857L12.9779 11.9637L13.4808 12.683L17.6785 18.6874H15.9557L12.5303 13.7878V13.7875Z" fill="white"/>
        </g>
    </g>
    <defs>
        <clipPath id="clip0_112_1432">
            <rect width="12.7139" height="13" fill="white" transform="translate(6.5 6.5)"/>
        </clipPath>
        <clipPath id="clip1_112_1432">
            <rect width="12.7139" height="13" fill="white" transform="translate(6.5 6.5)"/>
        </clipPath>
    </defs>
</svg>
