<svg width="125" height="124" viewBox="0 0 125 124" fill="none" xmlns="http://www.w3.org/2000/svg">
    <g filter="url(#filter0_d_1_2184)">
        <g filter="url(#filter1_d_1_2184)">
            <rect x="14.5" y="15" width="80" height="80" rx="40" fill="url(#paint0_linear_1_2184)"/>
        </g>
        <path d="M42.6048 74.8376C42.2743 75.0541 41.9438 75.0541 41.6133 74.8376C41.2828 74.6211 41.1727 74.2963 41.2828 73.8633L45.5793 59.7903L34.2321 51.7794C33.9016 51.5629 33.7915 51.2382 33.9016 50.9134C34.0118 50.5886 34.3423 50.3721 34.6728 50.3721H48.8843L53.4012 35.6495C53.5113 35.433 53.6215 35.3248 53.7317 35.2165C53.8418 35.1083 54.0622 35 54.1723 35C54.3927 35 54.5028 35.1083 54.613 35.2165C54.7232 35.3248 54.8333 35.433 54.9435 35.6495L59.4603 50.3721H73.6718C74.1125 50.3721 74.3328 50.5886 74.443 50.9134C74.5532 51.2382 74.443 51.5629 74.1125 51.7794L62.6552 59.7903L67.0618 73.8633C67.172 74.2963 67.0618 74.6211 66.7313 74.8376C66.4008 75.0541 66.0703 75.0541 65.7398 74.8376L54.1723 66.1773L42.6048 74.8376ZM73.782 74.7294L71.3583 72.7808L67.833 61.5223L76.3158 55.5683H79.2904C79.731 55.5683 79.9514 55.7848 80.0615 56.1096C80.1717 56.5426 80.0615 56.7591 79.731 56.9756L71.5787 62.9296L74.9938 73.9716C75.104 74.4046 74.9939 74.6211 74.6633 74.8376C74.3328 75.0541 74.1125 75.0541 73.782 74.7294ZM62.7653 46.0419L61.1128 40.521L62.6552 35.6495C62.7653 35.433 62.8755 35.3248 62.9857 35.2165C63.0958 35.1083 63.3162 35 63.4263 35C63.5365 35 63.7568 35.1083 63.9772 35.2165C64.0873 35.3248 64.1975 35.433 64.3077 35.6495L67.5025 46.0419H62.7653ZM34.2321 74.8376C33.9016 74.6211 33.7915 74.2963 33.9016 73.9716L37.427 62.9296L29.2746 57.0839C28.9441 56.8674 28.834 56.5426 28.9441 56.2179C29.0543 55.8931 29.3848 55.6766 29.7153 55.6766H32.8L41.2828 61.6306L37.7575 72.889L35.2236 74.7294C34.8931 75.0541 34.5626 75.0541 34.2321 74.8376ZM41.6133 46.0419L44.8082 35.6495C44.9183 35.433 45.0285 35.3248 45.1387 35.2165C45.2488 35.1083 45.4692 35 45.5793 35C45.7997 35 45.9098 35.1083 46.02 35.2165C46.1302 35.3248 46.2403 35.433 46.3505 35.6495L47.8928 40.521L46.2403 46.0419H41.6133Z" fill="url(#paint1_linear_1_2184)"/>
    </g>
    <defs>
        <filter id="filter0_d_1_2184" x="0.5" y="0" width="124" height="124" filterUnits="userSpaceOnUse" color-interpolation-filters="sRGB">
            <feFlood flood-opacity="0" result="BackgroundImageFix"/>
            <feColorMatrix in="SourceAlpha" type="matrix" values="0 0 0 0 0 0 0 0 0 0 0 0 0 0 0 0 0 0 127 0" result="hardAlpha"/>
            <feOffset dx="8" dy="7"/>
            <feGaussianBlur stdDeviation="11"/>
            <feComposite in2="hardAlpha" operator="out"/>
            <feColorMatrix type="matrix" values="0 0 0 0 0.941176 0 0 0 0 0.596078 0 0 0 0 0.0980392 0 0 0 0.3 0"/>
            <feBlend mode="normal" in2="BackgroundImageFix" result="effect1_dropShadow_1_2184"/>
            <feBlend mode="normal" in="SourceGraphic" in2="effect1_dropShadow_1_2184" result="shape"/>
        </filter>

        <linearGradient id="paint0_linear_1_2184" x1="57.8816" y1="41.576" x2="-2.31323" y2="0.849648" gradientUnits="userSpaceOnUse">
            <stop offset="0.00208493" stop-color="#09091D"/>
            <stop offset="1" stop-color="#EDDE5D"/>
        </linearGradient>
        <linearGradient id="paint1_linear_1_2184" x1="28.9028" y1="35" x2="80.1028" y2="75" gradientUnits="userSpaceOnUse">
            <stop stop-color="#F09819"/>
            <stop offset="1" stop-color="#EDDE5D"/>
        </linearGradient>
    </defs>
</svg>
