<svg width="48" height="33" viewBox="0 0 48 33" fill="none" xmlns="http://www.w3.org/2000/svg">
    <rect width="48" height="33" rx="2" fill="white"/>
    <path fill-rule="evenodd" clip-rule="evenodd" d="M14.5717 22.3551H11.6639L9.48332 14.0145C9.37983 13.6308 9.16007 13.2917 8.83682 13.1318C8.0301 12.7301 7.14115 12.4103 6.17139 12.2491V11.928H10.8557C11.5022 11.928 11.9871 12.4103 12.0679 12.9706L13.1993 18.9869L16.1058 11.928H18.9328L14.5717 22.3551ZM20.5491 22.3551H17.8029L20.0642 11.928H22.8105L20.5491 22.3551ZM26.3634 14.8166C26.4443 14.255 26.9291 13.9339 27.4948 13.9339C28.3838 13.8533 29.3521 14.0145 30.1603 14.4149L30.6451 12.1699C29.837 11.8488 28.9481 11.6875 28.1413 11.6875C25.4759 11.6875 23.5364 13.1318 23.5364 15.1363C23.5364 16.6613 24.9102 17.462 25.88 17.9443C26.9291 18.4253 27.3332 18.7464 27.2524 19.2274C27.2524 19.9488 26.4442 20.27 25.6375 20.27C24.6678 20.27 23.698 20.0295 22.8105 19.6277L22.3256 21.8741C23.2954 22.2745 24.3445 22.4357 25.3143 22.4357C28.303 22.515 30.1603 21.072 30.1603 18.9063C30.1603 16.1789 26.3634 16.019 26.3634 14.8166ZM39.7714 22.3551L37.5908 11.928H35.2487C34.7638 11.928 34.2789 12.2491 34.1173 12.7301L30.0794 22.3551H32.9065L33.4708 20.8315H36.9443L37.2676 22.3551H39.7714ZM35.6527 14.736L36.4594 18.6658H34.1981L35.6527 14.736Z" fill="#172B85"/>
</svg>
