<svg width="48" height="33" viewBox="0 0 48 33" fill="none" xmlns="http://www.w3.org/2000/svg">
    <rect x="0.142822" width="47.7143" height="33" rx="2" fill="white"/>
    <g clip-path="url(#clip0_112_1508)">
        <path d="M27.0933 16.3794C27.0933 15.478 26.7014 14.6816 25.3759 14.6816C24.6959 14.6816 24.1557 14.8725 23.8628 15.0395L24.0775 15.7626C24.3471 15.5961 24.7774 15.4589 25.1835 15.4589C25.8545 15.458 25.9645 15.8317 25.9645 16.0719V16.1298C24.4997 16.1274 23.5737 16.6257 23.5737 17.6404C23.5737 18.2605 24.0438 18.8418 24.8656 18.8418C25.3669 18.8418 25.7906 18.6426 26.0436 18.3281H26.0683C26.0683 18.3281 26.2351 19.0153 27.1577 18.7527C27.1108 18.4648 27.0933 18.1616 27.0933 17.793V16.3794ZM26.0005 17.3311C26.0005 17.4039 25.9944 17.4795 25.9726 17.5443C25.8882 17.8219 25.5972 18.0543 25.2352 18.0543C24.9295 18.0543 24.6897 17.884 24.6897 17.5271C24.6897 16.9812 25.302 16.831 26.0005 16.8347" fill="#0071CE"/>
        <path d="M4.66748 13.4551C4.66748 13.4551 5.62425 17.3087 5.77638 17.9329C5.9555 18.6626 6.27632 18.9323 7.2023 18.7526L7.80035 16.363C7.95152 15.771 8.05434 15.3464 8.15197 14.7432H8.16855C8.23631 15.3525 8.33395 15.771 8.45762 16.3649C8.45762 16.3649 8.70167 17.4505 8.82821 18.0192C8.95141 18.588 9.29829 18.9467 10.2067 18.7526L11.6303 13.4551H10.4811L9.99255 15.7467C9.86318 16.4106 9.74564 16.9336 9.65419 17.542H9.6376C9.55515 16.9401 9.45042 16.4386 9.31584 15.7882L8.80973 13.4551H7.61079L7.07056 15.7285C6.91654 16.4227 6.77248 16.9793 6.68196 17.5686H6.66633C6.57298 17.0157 6.44645 16.3117 6.31233 15.6436C6.31233 15.6436 5.99151 14.0159 5.87826 13.4551" fill="#0071CE"/>
        <path d="M14.8328 16.3794C14.8328 15.478 14.4399 14.6816 13.1144 14.6816C12.4363 14.6816 11.8951 14.8725 11.6023 15.0395L11.8169 15.7626C12.0856 15.5961 12.5155 15.4589 12.923 15.4589C13.594 15.458 13.7039 15.8317 13.7039 16.0719V16.1298C12.2392 16.1274 11.3123 16.6257 11.3123 17.6404C11.3123 18.2605 11.7842 18.8418 12.6022 18.8418C13.1083 18.8418 13.5282 18.6426 13.7812 18.3281H13.8068C13.8068 18.3281 13.9745 19.0153 14.8962 18.7527C14.8489 18.4648 14.8328 18.1616 14.8328 17.793V16.3794ZM13.739 17.3311C13.739 17.4039 13.7329 17.4795 13.712 17.5443C13.6267 17.8219 13.3357 18.0543 12.9728 18.0543C12.669 18.0543 12.4283 17.884 12.4283 17.5271C12.4283 16.9812 13.0405 16.831 13.739 16.8347" fill="#0071CE"/>
        <path d="M15.4292 13.4551V18.7508H16.5229V17.6278V13.4551H15.4292Z" fill="#0071CE"/>
        <path d="M30.45 13.4551V17.3624C30.45 17.9017 30.5528 18.2777 30.7741 18.5082C30.9684 18.7102 31.2863 18.8417 31.665 18.8417C31.9901 18.8417 32.308 18.7802 32.4583 18.7265L32.445 17.8853C32.3327 17.911 32.2043 17.9329 32.028 17.9329C31.6546 17.9329 31.5314 17.7001 31.5314 17.2159V15.7201H32.4839V14.7082H31.5314V13.4551" fill="#0071CE"/>
        <path d="M27.623 14.7722V18.7514H28.7537V16.7135C28.7537 16.6039 28.7608 16.5092 28.7784 16.4215C28.8627 15.9918 29.194 15.7198 29.6712 15.7198C29.8043 15.7198 29.8948 15.7342 29.9953 15.7496V14.7065C29.9109 14.6915 29.8536 14.6836 29.7498 14.6836C29.3267 14.6836 28.8471 14.9481 28.6447 15.5243H28.6168V14.7722" fill="#0071CE"/>
        <path d="M17.158 14.7722V18.7514H18.2597V16.4159C18.2597 16.3062 18.272 16.1942 18.3114 16.093C18.401 15.8565 18.6232 15.5826 18.98 15.5826C19.4236 15.5826 19.6331 15.9512 19.6331 16.483V18.7514H20.732V16.3879C20.732 16.2848 20.7467 16.1583 20.7775 16.0669C20.8656 15.7986 21.1064 15.5826 21.4391 15.5826C21.8873 15.5826 22.1044 15.9433 22.1044 16.5703V18.7514H23.2024V16.4051C23.2024 15.1725 22.5655 14.6836 21.8423 14.6836C21.5244 14.6836 21.2713 14.7606 21.0438 14.8987C20.8514 15.0148 20.6827 15.1786 20.5315 15.3927H20.515C20.3411 14.9645 19.9326 14.6836 19.3989 14.6836C18.7147 14.6836 18.4038 15.0237 18.2209 15.3111H18.2043V14.7722" fill="#0071CE"/>
        <path d="M38.4014 14.5941C38.6174 14.5941 38.7994 14.4831 38.8231 14.3403L39.0373 11.9516C39.0373 11.7151 38.7544 11.5215 38.4014 11.5215C38.0464 11.5215 37.7654 11.7151 37.7654 11.9516L37.9815 14.3403C38.0042 14.4831 38.1852 14.5941 38.4014 14.5941Z" fill="#FFC220"/>
        <path d="M37.0869 15.3406C37.194 15.154 37.1879 14.9469 37.0722 14.8545L35.0724 13.4777C34.8644 13.3583 34.553 13.5006 34.3749 13.802C34.1972 14.1029 34.2332 14.4407 34.4369 14.5578L36.6509 15.5683C36.7926 15.6205 36.9779 15.5235 37.0869 15.3388" fill="#FFC220"/>
        <path d="M39.7152 15.34C39.8285 15.5248 40.0138 15.6218 40.1517 15.5723L42.3657 14.559C42.5713 14.4396 42.6022 14.1051 42.4282 13.8042C42.2505 13.5028 41.9373 13.3614 41.7297 13.4785L39.7294 14.8539C39.6185 14.9477 39.6105 15.1557 39.7176 15.3419" fill="#FFC220"/>
        <path d="M38.4014 17.5781C38.6174 17.5781 38.7994 17.6892 38.8231 17.8319L39.0373 20.2206C39.0373 20.4571 38.7544 20.6489 38.4014 20.6489C38.0464 20.6489 37.7654 20.4571 37.7654 20.2206L37.9815 17.8319C38.0042 17.6892 38.1852 17.5781 38.4014 17.5781Z" fill="#FFC220"/>
        <path d="M39.7152 16.8329C39.8285 16.6477 40.0138 16.5488 40.1517 16.6024L42.3657 17.6139C42.5713 17.731 42.6022 18.0683 42.4282 18.3697C42.2505 18.6687 41.9373 18.811 41.7297 18.6939L39.7294 17.3167C39.6185 17.2239 39.6105 17.0167 39.7176 16.8329" fill="#FFC220"/>
        <path d="M37.0869 16.8309C37.194 17.0171 37.1879 17.2237 37.0722 17.317L35.0724 18.6919C34.8644 18.8114 34.553 18.6686 34.3749 18.3696C34.1972 18.0686 34.2332 17.7309 34.4369 17.6138L36.6509 16.6023C36.7926 16.5491 36.9779 16.6471 37.0869 16.8309Z" fill="#FFC220"/>
        <path d="M43.0136 18.4831H43.0411C43.0785 18.4831 43.0936 18.4948 43.0979 18.5242C43.106 18.5568 43.1102 18.5788 43.1183 18.5881H43.1894C43.1832 18.5811 43.1752 18.5634 43.1709 18.5223C43.1628 18.4868 43.1443 18.4668 43.1183 18.4598V18.4533C43.1543 18.4453 43.1752 18.4215 43.1752 18.3921C43.1752 18.3655 43.1628 18.3464 43.1505 18.3343C43.1268 18.3231 43.1041 18.3142 43.0538 18.3142C43.0093 18.3142 42.9766 18.318 42.9505 18.324V18.5881H43.0136V18.4831ZM43.0155 18.3627L43.0477 18.3585C43.0856 18.3585 43.106 18.3758 43.106 18.4001C43.106 18.4271 43.0785 18.4397 43.0434 18.4397H43.0155V18.3627ZM43.0558 18.1836C42.9003 18.1836 42.7771 18.303 42.7771 18.4495C42.7771 18.5997 42.9003 18.7192 43.0558 18.7192C43.2131 18.7192 43.3325 18.5997 43.3325 18.4495C43.3325 18.303 43.2131 18.1836 43.0558 18.1836ZM43.0558 18.2372C43.1752 18.2372 43.2638 18.3324 43.2638 18.4495C43.2638 18.5676 43.1752 18.6655 43.0558 18.6637C42.9363 18.6637 42.8458 18.5676 42.8458 18.4495C42.8458 18.3324 42.9363 18.2372 43.0538 18.2372" fill="#FFC220"/>
    </g>
    <defs>
        <clipPath id="clip0_112_1508">
            <rect width="38.665" height="9.12716" fill="white" transform="translate(4.66748 11.5215)"/>
        </clipPath>
    </defs>
</svg>
